<?xml version="1.0" encoding="utf-8" standalone="no"?>
<!DOCTYPE svg PUBLIC "-//W3C//DTD SVG 1.1//EN"
  "http://www.w3.org/Graphics/SVG/1.1/DTD/svg11.dtd">
<svg xmlns:xlink="http://www.w3.org/1999/xlink" width="1008pt" height="360pt" viewBox="0 0 1008 360" xmlns="http://www.w3.org/2000/svg" version="1.1">
 <metadata>
  <rdf:RDF xmlns:dc="http://purl.org/dc/elements/1.1/" xmlns:cc="http://creativecommons.org/ns#" xmlns:rdf="http://www.w3.org/1999/02/22-rdf-syntax-ns#">
   <cc:Work>
    <dc:type rdf:resource="http://purl.org/dc/dcmitype/StillImage"/>
    <dc:date>2025-04-22T20:23:23.781473</dc:date>
    <dc:format>image/svg+xml</dc:format>
    <dc:creator>
     <cc:Agent>
      <dc:title>Matplotlib v3.10.1, https://matplotlib.org/</dc:title>
     </cc:Agent>
    </dc:creator>
   </cc:Work>
  </rdf:RDF>
 </metadata>
 <defs>
  <style type="text/css">*{stroke-linejoin: round; stroke-linecap: butt}</style>
 </defs>
 <g id="figure_1">
  <g id="patch_1">
   <path d="M 0 360 
L 1008 360 
L 1008 0 
L 0 0 
z
" style="fill: #ffffff"/>
  </g>
  <g id="axes_1">
   <g id="patch_2">
    <path d="M 55.62 243.445046 
L 493.958971 243.445046 
L 493.958971 27.65625 
L 55.62 27.65625 
z
" style="fill: #ffffff"/>
   </g>
   <g id="matplotlib.axis_1">
    <g id="xtick_1">
     <g id="text_1">
      <!-- Business -->
      <g style="fill: #262626" transform="translate(63.767757 290.072461) rotate(-45) scale(0.11 -0.11)">
       <defs>
        <path id="ArialMT-42" d="M 469 0 
L 469 4581 
L 2188 4581 
Q 2713 4581 3030 4442 
Q 3347 4303 3526 4014 
Q 3706 3725 3706 3409 
Q 3706 3116 3547 2856 
Q 3388 2597 3066 2438 
Q 3481 2316 3704 2022 
Q 3928 1728 3928 1328 
Q 3928 1006 3792 729 
Q 3656 453 3456 303 
Q 3256 153 2954 76 
Q 2653 0 2216 0 
L 469 0 
z
M 1075 2656 
L 2066 2656 
Q 2469 2656 2644 2709 
Q 2875 2778 2992 2937 
Q 3109 3097 3109 3338 
Q 3109 3566 3000 3739 
Q 2891 3913 2687 3977 
Q 2484 4041 1991 4041 
L 1075 4041 
L 1075 2656 
z
M 1075 541 
L 2216 541 
Q 2509 541 2628 563 
Q 2838 600 2978 687 
Q 3119 775 3209 942 
Q 3300 1109 3300 1328 
Q 3300 1584 3169 1773 
Q 3038 1963 2805 2039 
Q 2572 2116 2134 2116 
L 1075 2116 
L 1075 541 
z
" transform="scale(0.015625)"/>
        <path id="ArialMT-75" d="M 2597 0 
L 2597 488 
Q 2209 -75 1544 -75 
Q 1250 -75 995 37 
Q 741 150 617 320 
Q 494 491 444 738 
Q 409 903 409 1263 
L 409 3319 
L 972 3319 
L 972 1478 
Q 972 1038 1006 884 
Q 1059 663 1231 536 
Q 1403 409 1656 409 
Q 1909 409 2131 539 
Q 2353 669 2445 892 
Q 2538 1116 2538 1541 
L 2538 3319 
L 3100 3319 
L 3100 0 
L 2597 0 
z
" transform="scale(0.015625)"/>
        <path id="ArialMT-73" d="M 197 991 
L 753 1078 
Q 800 744 1014 566 
Q 1228 388 1613 388 
Q 2000 388 2187 545 
Q 2375 703 2375 916 
Q 2375 1106 2209 1216 
Q 2094 1291 1634 1406 
Q 1016 1563 777 1677 
Q 538 1791 414 1992 
Q 291 2194 291 2438 
Q 291 2659 392 2848 
Q 494 3038 669 3163 
Q 800 3259 1026 3326 
Q 1253 3394 1513 3394 
Q 1903 3394 2198 3281 
Q 2494 3169 2634 2976 
Q 2775 2784 2828 2463 
L 2278 2388 
Q 2241 2644 2061 2787 
Q 1881 2931 1553 2931 
Q 1166 2931 1000 2803 
Q 834 2675 834 2503 
Q 834 2394 903 2306 
Q 972 2216 1119 2156 
Q 1203 2125 1616 2013 
Q 2213 1853 2448 1751 
Q 2684 1650 2818 1456 
Q 2953 1263 2953 975 
Q 2953 694 2789 445 
Q 2625 197 2315 61 
Q 2006 -75 1616 -75 
Q 969 -75 630 194 
Q 291 463 197 991 
z
" transform="scale(0.015625)"/>
        <path id="ArialMT-69" d="M 425 3934 
L 425 4581 
L 988 4581 
L 988 3934 
L 425 3934 
z
M 425 0 
L 425 3319 
L 988 3319 
L 988 0 
L 425 0 
z
" transform="scale(0.015625)"/>
        <path id="ArialMT-6e" d="M 422 0 
L 422 3319 
L 928 3319 
L 928 2847 
Q 1294 3394 1984 3394 
Q 2284 3394 2536 3286 
Q 2788 3178 2913 3003 
Q 3038 2828 3088 2588 
Q 3119 2431 3119 2041 
L 3119 0 
L 2556 0 
L 2556 2019 
Q 2556 2363 2490 2533 
Q 2425 2703 2258 2804 
Q 2091 2906 1866 2906 
Q 1506 2906 1245 2678 
Q 984 2450 984 1813 
L 984 0 
L 422 0 
z
" transform="scale(0.015625)"/>
        <path id="ArialMT-65" d="M 2694 1069 
L 3275 997 
Q 3138 488 2766 206 
Q 2394 -75 1816 -75 
Q 1088 -75 661 373 
Q 234 822 234 1631 
Q 234 2469 665 2931 
Q 1097 3394 1784 3394 
Q 2450 3394 2872 2941 
Q 3294 2488 3294 1666 
Q 3294 1616 3291 1516 
L 816 1516 
Q 847 969 1125 678 
Q 1403 388 1819 388 
Q 2128 388 2347 550 
Q 2566 713 2694 1069 
z
M 847 1978 
L 2700 1978 
Q 2663 2397 2488 2606 
Q 2219 2931 1791 2931 
Q 1403 2931 1139 2672 
Q 875 2413 847 1978 
z
" transform="scale(0.015625)"/>
       </defs>
       <use xlink:href="#ArialMT-42"/>
       <use xlink:href="#ArialMT-75" transform="translate(66.699219 0)"/>
       <use xlink:href="#ArialMT-73" transform="translate(122.314453 0)"/>
       <use xlink:href="#ArialMT-69" transform="translate(172.314453 0)"/>
       <use xlink:href="#ArialMT-6e" transform="translate(194.53125 0)"/>
       <use xlink:href="#ArialMT-65" transform="translate(250.146484 0)"/>
       <use xlink:href="#ArialMT-73" transform="translate(305.761719 0)"/>
       <use xlink:href="#ArialMT-73" transform="translate(355.761719 0)"/>
      </g>
     </g>
    </g>
    <g id="xtick_2">
     <g id="text_2">
      <!-- Car (New) -->
      <g style="fill: #262626" transform="translate(105.666833 294.040545) rotate(-45) scale(0.11 -0.11)">
       <defs>
        <path id="ArialMT-43" d="M 3763 1606 
L 4369 1453 
Q 4178 706 3683 314 
Q 3188 -78 2472 -78 
Q 1731 -78 1267 223 
Q 803 525 561 1097 
Q 319 1669 319 2325 
Q 319 3041 592 3573 
Q 866 4106 1370 4382 
Q 1875 4659 2481 4659 
Q 3169 4659 3637 4309 
Q 4106 3959 4291 3325 
L 3694 3184 
Q 3534 3684 3231 3912 
Q 2928 4141 2469 4141 
Q 1941 4141 1586 3887 
Q 1231 3634 1087 3207 
Q 944 2781 944 2328 
Q 944 1744 1114 1308 
Q 1284 872 1643 656 
Q 2003 441 2422 441 
Q 2931 441 3284 734 
Q 3638 1028 3763 1606 
z
" transform="scale(0.015625)"/>
        <path id="ArialMT-61" d="M 2588 409 
Q 2275 144 1986 34 
Q 1697 -75 1366 -75 
Q 819 -75 525 192 
Q 231 459 231 875 
Q 231 1119 342 1320 
Q 453 1522 633 1644 
Q 813 1766 1038 1828 
Q 1203 1872 1538 1913 
Q 2219 1994 2541 2106 
Q 2544 2222 2544 2253 
Q 2544 2597 2384 2738 
Q 2169 2928 1744 2928 
Q 1347 2928 1158 2789 
Q 969 2650 878 2297 
L 328 2372 
Q 403 2725 575 2942 
Q 747 3159 1072 3276 
Q 1397 3394 1825 3394 
Q 2250 3394 2515 3294 
Q 2781 3194 2906 3042 
Q 3031 2891 3081 2659 
Q 3109 2516 3109 2141 
L 3109 1391 
Q 3109 606 3145 398 
Q 3181 191 3288 0 
L 2700 0 
Q 2613 175 2588 409 
z
M 2541 1666 
Q 2234 1541 1622 1453 
Q 1275 1403 1131 1340 
Q 988 1278 909 1158 
Q 831 1038 831 891 
Q 831 666 1001 516 
Q 1172 366 1500 366 
Q 1825 366 2078 508 
Q 2331 650 2450 897 
Q 2541 1088 2541 1459 
L 2541 1666 
z
" transform="scale(0.015625)"/>
        <path id="ArialMT-72" d="M 416 0 
L 416 3319 
L 922 3319 
L 922 2816 
Q 1116 3169 1280 3281 
Q 1444 3394 1641 3394 
Q 1925 3394 2219 3213 
L 2025 2691 
Q 1819 2813 1613 2813 
Q 1428 2813 1281 2702 
Q 1134 2591 1072 2394 
Q 978 2094 978 1738 
L 978 0 
L 416 0 
z
" transform="scale(0.015625)"/>
        <path id="ArialMT-20" transform="scale(0.015625)"/>
        <path id="ArialMT-28" d="M 1497 -1347 
Q 1031 -759 709 28 
Q 388 816 388 1659 
Q 388 2403 628 3084 
Q 909 3875 1497 4659 
L 1900 4659 
Q 1522 4009 1400 3731 
Q 1209 3300 1100 2831 
Q 966 2247 966 1656 
Q 966 153 1900 -1347 
L 1497 -1347 
z
" transform="scale(0.015625)"/>
        <path id="ArialMT-4e" d="M 488 0 
L 488 4581 
L 1109 4581 
L 3516 984 
L 3516 4581 
L 4097 4581 
L 4097 0 
L 3475 0 
L 1069 3600 
L 1069 0 
L 488 0 
z
" transform="scale(0.015625)"/>
        <path id="ArialMT-77" d="M 1034 0 
L 19 3319 
L 600 3319 
L 1128 1403 
L 1325 691 
Q 1338 744 1497 1375 
L 2025 3319 
L 2603 3319 
L 3100 1394 
L 3266 759 
L 3456 1400 
L 4025 3319 
L 4572 3319 
L 3534 0 
L 2950 0 
L 2422 1988 
L 2294 2553 
L 1622 0 
L 1034 0 
z
" transform="scale(0.015625)"/>
        <path id="ArialMT-29" d="M 791 -1347 
L 388 -1347 
Q 1322 153 1322 1656 
Q 1322 2244 1188 2822 
Q 1081 3291 891 3722 
Q 769 4003 388 4659 
L 791 4659 
Q 1378 3875 1659 3084 
Q 1900 2403 1900 1659 
Q 1900 816 1576 28 
Q 1253 -759 791 -1347 
z
" transform="scale(0.015625)"/>
       </defs>
       <use xlink:href="#ArialMT-43"/>
       <use xlink:href="#ArialMT-61" transform="translate(72.216797 0)"/>
       <use xlink:href="#ArialMT-72" transform="translate(127.832031 0)"/>
       <use xlink:href="#ArialMT-20" transform="translate(161.132812 0)"/>
       <use xlink:href="#ArialMT-28" transform="translate(188.916016 0)"/>
       <use xlink:href="#ArialMT-4e" transform="translate(222.216797 0)"/>
       <use xlink:href="#ArialMT-65" transform="translate(294.433594 0)"/>
       <use xlink:href="#ArialMT-77" transform="translate(350.048828 0)"/>
       <use xlink:href="#ArialMT-29" transform="translate(422.265625 0)"/>
      </g>
     </g>
    </g>
    <g id="xtick_3">
     <g id="text_3">
      <!-- Car (Used) -->
      <g style="fill: #262626" transform="translate(148.202139 296.637726) rotate(-45) scale(0.11 -0.11)">
       <defs>
        <path id="ArialMT-55" d="M 3500 4581 
L 4106 4581 
L 4106 1934 
Q 4106 1244 3950 837 
Q 3794 431 3386 176 
Q 2978 -78 2316 -78 
Q 1672 -78 1262 144 
Q 853 366 678 786 
Q 503 1206 503 1934 
L 503 4581 
L 1109 4581 
L 1109 1938 
Q 1109 1341 1220 1058 
Q 1331 775 1601 622 
Q 1872 469 2263 469 
Q 2931 469 3215 772 
Q 3500 1075 3500 1938 
L 3500 4581 
z
" transform="scale(0.015625)"/>
        <path id="ArialMT-64" d="M 2575 0 
L 2575 419 
Q 2259 -75 1647 -75 
Q 1250 -75 917 144 
Q 584 363 401 755 
Q 219 1147 219 1656 
Q 219 2153 384 2558 
Q 550 2963 881 3178 
Q 1213 3394 1622 3394 
Q 1922 3394 2156 3267 
Q 2391 3141 2538 2938 
L 2538 4581 
L 3097 4581 
L 3097 0 
L 2575 0 
z
M 797 1656 
Q 797 1019 1065 703 
Q 1334 388 1700 388 
Q 2069 388 2326 689 
Q 2584 991 2584 1609 
Q 2584 2291 2321 2609 
Q 2059 2928 1675 2928 
Q 1300 2928 1048 2622 
Q 797 2316 797 1656 
z
" transform="scale(0.015625)"/>
       </defs>
       <use xlink:href="#ArialMT-43"/>
       <use xlink:href="#ArialMT-61" transform="translate(72.216797 0)"/>
       <use xlink:href="#ArialMT-72" transform="translate(127.832031 0)"/>
       <use xlink:href="#ArialMT-20" transform="translate(161.132812 0)"/>
       <use xlink:href="#ArialMT-28" transform="translate(188.916016 0)"/>
       <use xlink:href="#ArialMT-55" transform="translate(222.216797 0)"/>
       <use xlink:href="#ArialMT-73" transform="translate(294.433594 0)"/>
       <use xlink:href="#ArialMT-65" transform="translate(344.433594 0)"/>
       <use xlink:href="#ArialMT-64" transform="translate(400.048828 0)"/>
       <use xlink:href="#ArialMT-29" transform="translate(455.664062 0)"/>
      </g>
     </g>
    </g>
    <g id="xtick_4">
     <g id="text_4">
      <!-- Domestic Appliances -->
      <g style="fill: #262626" transform="translate(174.95079 330.709777) rotate(-45) scale(0.11 -0.11)">
       <defs>
        <path id="ArialMT-44" d="M 494 0 
L 494 4581 
L 2072 4581 
Q 2606 4581 2888 4516 
Q 3281 4425 3559 4188 
Q 3922 3881 4101 3404 
Q 4281 2928 4281 2316 
Q 4281 1794 4159 1391 
Q 4038 988 3847 723 
Q 3656 459 3429 307 
Q 3203 156 2883 78 
Q 2563 0 2147 0 
L 494 0 
z
M 1100 541 
L 2078 541 
Q 2531 541 2789 625 
Q 3047 709 3200 863 
Q 3416 1078 3536 1442 
Q 3656 1806 3656 2325 
Q 3656 3044 3420 3430 
Q 3184 3816 2847 3947 
Q 2603 4041 2063 4041 
L 1100 4041 
L 1100 541 
z
" transform="scale(0.015625)"/>
        <path id="ArialMT-6f" d="M 213 1659 
Q 213 2581 725 3025 
Q 1153 3394 1769 3394 
Q 2453 3394 2887 2945 
Q 3322 2497 3322 1706 
Q 3322 1066 3130 698 
Q 2938 331 2570 128 
Q 2203 -75 1769 -75 
Q 1072 -75 642 372 
Q 213 819 213 1659 
z
M 791 1659 
Q 791 1022 1069 705 
Q 1347 388 1769 388 
Q 2188 388 2466 706 
Q 2744 1025 2744 1678 
Q 2744 2294 2464 2611 
Q 2184 2928 1769 2928 
Q 1347 2928 1069 2612 
Q 791 2297 791 1659 
z
" transform="scale(0.015625)"/>
        <path id="ArialMT-6d" d="M 422 0 
L 422 3319 
L 925 3319 
L 925 2853 
Q 1081 3097 1340 3245 
Q 1600 3394 1931 3394 
Q 2300 3394 2536 3241 
Q 2772 3088 2869 2813 
Q 3263 3394 3894 3394 
Q 4388 3394 4653 3120 
Q 4919 2847 4919 2278 
L 4919 0 
L 4359 0 
L 4359 2091 
Q 4359 2428 4304 2576 
Q 4250 2725 4106 2815 
Q 3963 2906 3769 2906 
Q 3419 2906 3187 2673 
Q 2956 2441 2956 1928 
L 2956 0 
L 2394 0 
L 2394 2156 
Q 2394 2531 2256 2718 
Q 2119 2906 1806 2906 
Q 1569 2906 1367 2781 
Q 1166 2656 1075 2415 
Q 984 2175 984 1722 
L 984 0 
L 422 0 
z
" transform="scale(0.015625)"/>
        <path id="ArialMT-74" d="M 1650 503 
L 1731 6 
Q 1494 -44 1306 -44 
Q 1000 -44 831 53 
Q 663 150 594 308 
Q 525 466 525 972 
L 525 2881 
L 113 2881 
L 113 3319 
L 525 3319 
L 525 4141 
L 1084 4478 
L 1084 3319 
L 1650 3319 
L 1650 2881 
L 1084 2881 
L 1084 941 
Q 1084 700 1114 631 
Q 1144 563 1211 522 
Q 1278 481 1403 481 
Q 1497 481 1650 503 
z
" transform="scale(0.015625)"/>
        <path id="ArialMT-63" d="M 2588 1216 
L 3141 1144 
Q 3050 572 2676 248 
Q 2303 -75 1759 -75 
Q 1078 -75 664 370 
Q 250 816 250 1647 
Q 250 2184 428 2587 
Q 606 2991 970 3192 
Q 1334 3394 1763 3394 
Q 2303 3394 2647 3120 
Q 2991 2847 3088 2344 
L 2541 2259 
Q 2463 2594 2264 2762 
Q 2066 2931 1784 2931 
Q 1359 2931 1093 2626 
Q 828 2322 828 1663 
Q 828 994 1084 691 
Q 1341 388 1753 388 
Q 2084 388 2306 591 
Q 2528 794 2588 1216 
z
" transform="scale(0.015625)"/>
        <path id="ArialMT-41" d="M -9 0 
L 1750 4581 
L 2403 4581 
L 4278 0 
L 3588 0 
L 3053 1388 
L 1138 1388 
L 634 0 
L -9 0 
z
M 1313 1881 
L 2866 1881 
L 2388 3150 
Q 2169 3728 2063 4100 
Q 1975 3659 1816 3225 
L 1313 1881 
z
" transform="scale(0.015625)"/>
        <path id="ArialMT-70" d="M 422 -1272 
L 422 3319 
L 934 3319 
L 934 2888 
Q 1116 3141 1344 3267 
Q 1572 3394 1897 3394 
Q 2322 3394 2647 3175 
Q 2972 2956 3137 2557 
Q 3303 2159 3303 1684 
Q 3303 1175 3120 767 
Q 2938 359 2589 142 
Q 2241 -75 1856 -75 
Q 1575 -75 1351 44 
Q 1128 163 984 344 
L 984 -1272 
L 422 -1272 
z
M 931 1641 
Q 931 1000 1190 694 
Q 1450 388 1819 388 
Q 2194 388 2461 705 
Q 2728 1022 2728 1688 
Q 2728 2322 2467 2637 
Q 2206 2953 1844 2953 
Q 1484 2953 1207 2617 
Q 931 2281 931 1641 
z
" transform="scale(0.015625)"/>
        <path id="ArialMT-6c" d="M 409 0 
L 409 4581 
L 972 4581 
L 972 0 
L 409 0 
z
" transform="scale(0.015625)"/>
       </defs>
       <use xlink:href="#ArialMT-44"/>
       <use xlink:href="#ArialMT-6f" transform="translate(72.216797 0)"/>
       <use xlink:href="#ArialMT-6d" transform="translate(127.832031 0)"/>
       <use xlink:href="#ArialMT-65" transform="translate(211.132812 0)"/>
       <use xlink:href="#ArialMT-73" transform="translate(266.748047 0)"/>
       <use xlink:href="#ArialMT-74" transform="translate(316.748047 0)"/>
       <use xlink:href="#ArialMT-69" transform="translate(344.53125 0)"/>
       <use xlink:href="#ArialMT-63" transform="translate(366.748047 0)"/>
       <use xlink:href="#ArialMT-20" transform="translate(416.748047 0)"/>
       <use xlink:href="#ArialMT-41" transform="translate(439.03125 0)"/>
       <use xlink:href="#ArialMT-70" transform="translate(505.730469 0)"/>
       <use xlink:href="#ArialMT-70" transform="translate(561.345703 0)"/>
       <use xlink:href="#ArialMT-6c" transform="translate(616.960938 0)"/>
       <use xlink:href="#ArialMT-69" transform="translate(639.177734 0)"/>
       <use xlink:href="#ArialMT-61" transform="translate(661.394531 0)"/>
       <use xlink:href="#ArialMT-6e" transform="translate(717.009766 0)"/>
       <use xlink:href="#ArialMT-63" transform="translate(772.625 0)"/>
       <use xlink:href="#ArialMT-65" transform="translate(822.625 0)"/>
       <use xlink:href="#ArialMT-73" transform="translate(878.240234 0)"/>
      </g>
     </g>
    </g>
    <g id="xtick_5">
     <g id="text_5">
      <!-- Education -->
      <g style="fill: #262626" transform="translate(237.586601 293.105949) rotate(-45) scale(0.11 -0.11)">
       <defs>
        <path id="ArialMT-45" d="M 506 0 
L 506 4581 
L 3819 4581 
L 3819 4041 
L 1113 4041 
L 1113 2638 
L 3647 2638 
L 3647 2100 
L 1113 2100 
L 1113 541 
L 3925 541 
L 3925 0 
L 506 0 
z
" transform="scale(0.015625)"/>
       </defs>
       <use xlink:href="#ArialMT-45"/>
       <use xlink:href="#ArialMT-64" transform="translate(66.699219 0)"/>
       <use xlink:href="#ArialMT-75" transform="translate(122.314453 0)"/>
       <use xlink:href="#ArialMT-63" transform="translate(177.929688 0)"/>
       <use xlink:href="#ArialMT-61" transform="translate(227.929688 0)"/>
       <use xlink:href="#ArialMT-74" transform="translate(283.544922 0)"/>
       <use xlink:href="#ArialMT-69" transform="translate(311.328125 0)"/>
       <use xlink:href="#ArialMT-6f" transform="translate(333.544922 0)"/>
       <use xlink:href="#ArialMT-6e" transform="translate(389.160156 0)"/>
      </g>
     </g>
    </g>
    <g id="xtick_6">
     <g id="text_6">
      <!-- Furniture -->
      <g style="fill: #262626" transform="translate(283.156611 289.633723) rotate(-45) scale(0.11 -0.11)">
       <defs>
        <path id="ArialMT-46" d="M 525 0 
L 525 4581 
L 3616 4581 
L 3616 4041 
L 1131 4041 
L 1131 2622 
L 3281 2622 
L 3281 2081 
L 1131 2081 
L 1131 0 
L 525 0 
z
" transform="scale(0.015625)"/>
       </defs>
       <use xlink:href="#ArialMT-46"/>
       <use xlink:href="#ArialMT-75" transform="translate(61.083984 0)"/>
       <use xlink:href="#ArialMT-72" transform="translate(116.699219 0)"/>
       <use xlink:href="#ArialMT-6e" transform="translate(150 0)"/>
       <use xlink:href="#ArialMT-69" transform="translate(205.615234 0)"/>
       <use xlink:href="#ArialMT-74" transform="translate(227.832031 0)"/>
       <use xlink:href="#ArialMT-75" transform="translate(255.615234 0)"/>
       <use xlink:href="#ArialMT-72" transform="translate(311.230469 0)"/>
       <use xlink:href="#ArialMT-65" transform="translate(344.53125 0)"/>
      </g>
     </g>
    </g>
    <g id="xtick_7">
     <g id="text_7">
      <!-- Other -->
      <g style="fill: #262626" transform="translate(332.825354 277.96403) rotate(-45) scale(0.11 -0.11)">
       <defs>
        <path id="ArialMT-4f" d="M 309 2231 
Q 309 3372 921 4017 
Q 1534 4663 2503 4663 
Q 3138 4663 3647 4359 
Q 4156 4056 4423 3514 
Q 4691 2972 4691 2284 
Q 4691 1588 4409 1038 
Q 4128 488 3612 205 
Q 3097 -78 2500 -78 
Q 1853 -78 1343 234 
Q 834 547 571 1087 
Q 309 1628 309 2231 
z
M 934 2222 
Q 934 1394 1379 917 
Q 1825 441 2497 441 
Q 3181 441 3623 922 
Q 4066 1403 4066 2288 
Q 4066 2847 3877 3264 
Q 3688 3681 3323 3911 
Q 2959 4141 2506 4141 
Q 1863 4141 1398 3698 
Q 934 3256 934 2222 
z
" transform="scale(0.015625)"/>
        <path id="ArialMT-68" d="M 422 0 
L 422 4581 
L 984 4581 
L 984 2938 
Q 1378 3394 1978 3394 
Q 2347 3394 2619 3248 
Q 2891 3103 3008 2847 
Q 3125 2591 3125 2103 
L 3125 0 
L 2563 0 
L 2563 2103 
Q 2563 2525 2380 2717 
Q 2197 2909 1863 2909 
Q 1613 2909 1392 2779 
Q 1172 2650 1078 2428 
Q 984 2206 984 1816 
L 984 0 
L 422 0 
z
" transform="scale(0.015625)"/>
       </defs>
       <use xlink:href="#ArialMT-4f"/>
       <use xlink:href="#ArialMT-74" transform="translate(77.783203 0)"/>
       <use xlink:href="#ArialMT-68" transform="translate(105.566406 0)"/>
       <use xlink:href="#ArialMT-65" transform="translate(161.181641 0)"/>
       <use xlink:href="#ArialMT-72" transform="translate(216.796875 0)"/>
      </g>
     </g>
    </g>
    <g id="xtick_8">
     <g id="text_8">
      <!-- Radio/TV -->
      <g style="fill: #262626" transform="translate(370.174198 290.934136) rotate(-45) scale(0.11 -0.11)">
       <defs>
        <path id="ArialMT-52" d="M 503 0 
L 503 4581 
L 2534 4581 
Q 3147 4581 3465 4457 
Q 3784 4334 3975 4021 
Q 4166 3709 4166 3331 
Q 4166 2844 3850 2509 
Q 3534 2175 2875 2084 
Q 3116 1969 3241 1856 
Q 3506 1613 3744 1247 
L 4541 0 
L 3778 0 
L 3172 953 
Q 2906 1366 2734 1584 
Q 2563 1803 2427 1890 
Q 2291 1978 2150 2013 
Q 2047 2034 1813 2034 
L 1109 2034 
L 1109 0 
L 503 0 
z
M 1109 2559 
L 2413 2559 
Q 2828 2559 3062 2645 
Q 3297 2731 3419 2920 
Q 3541 3109 3541 3331 
Q 3541 3656 3305 3865 
Q 3069 4075 2559 4075 
L 1109 4075 
L 1109 2559 
z
" transform="scale(0.015625)"/>
        <path id="ArialMT-2f" d="M 0 -78 
L 1328 4659 
L 1778 4659 
L 453 -78 
L 0 -78 
z
" transform="scale(0.015625)"/>
        <path id="ArialMT-54" d="M 1659 0 
L 1659 4041 
L 150 4041 
L 150 4581 
L 3781 4581 
L 3781 4041 
L 2266 4041 
L 2266 0 
L 1659 0 
z
" transform="scale(0.015625)"/>
        <path id="ArialMT-56" d="M 1803 0 
L 28 4581 
L 684 4581 
L 1875 1253 
Q 2019 853 2116 503 
Q 2222 878 2363 1253 
L 3600 4581 
L 4219 4581 
L 2425 0 
L 1803 0 
z
" transform="scale(0.015625)"/>
       </defs>
       <use xlink:href="#ArialMT-52"/>
       <use xlink:href="#ArialMT-61" transform="translate(72.216797 0)"/>
       <use xlink:href="#ArialMT-64" transform="translate(127.832031 0)"/>
       <use xlink:href="#ArialMT-69" transform="translate(183.447266 0)"/>
       <use xlink:href="#ArialMT-6f" transform="translate(205.664062 0)"/>
       <use xlink:href="#ArialMT-2f" transform="translate(261.279297 0)"/>
       <use xlink:href="#ArialMT-54" transform="translate(289.0625 0)"/>
       <use xlink:href="#ArialMT-56" transform="translate(350.146484 0)"/>
      </g>
     </g>
    </g>
    <g id="xtick_9">
     <g id="text_9">
      <!-- Repairs -->
      <g style="fill: #262626" transform="translate(416.818568 285.31319) rotate(-45) scale(0.11 -0.11)">
       <use xlink:href="#ArialMT-52"/>
       <use xlink:href="#ArialMT-65" transform="translate(72.216797 0)"/>
       <use xlink:href="#ArialMT-70" transform="translate(127.832031 0)"/>
       <use xlink:href="#ArialMT-61" transform="translate(183.447266 0)"/>
       <use xlink:href="#ArialMT-69" transform="translate(239.0625 0)"/>
       <use xlink:href="#ArialMT-72" transform="translate(261.279297 0)"/>
       <use xlink:href="#ArialMT-73" transform="translate(294.580078 0)"/>
      </g>
     </g>
    </g>
    <g id="xtick_10">
     <g id="text_10">
      <!-- Retraining -->
      <g style="fill: #262626" transform="translate(456.281496 293.963978) rotate(-45) scale(0.11 -0.11)">
       <defs>
        <path id="ArialMT-67" d="M 319 -275 
L 866 -356 
Q 900 -609 1056 -725 
Q 1266 -881 1628 -881 
Q 2019 -881 2231 -725 
Q 2444 -569 2519 -288 
Q 2563 -116 2559 434 
Q 2191 0 1641 0 
Q 956 0 581 494 
Q 206 988 206 1678 
Q 206 2153 378 2554 
Q 550 2956 876 3175 
Q 1203 3394 1644 3394 
Q 2231 3394 2613 2919 
L 2613 3319 
L 3131 3319 
L 3131 450 
Q 3131 -325 2973 -648 
Q 2816 -972 2473 -1159 
Q 2131 -1347 1631 -1347 
Q 1038 -1347 672 -1080 
Q 306 -813 319 -275 
z
M 784 1719 
Q 784 1066 1043 766 
Q 1303 466 1694 466 
Q 2081 466 2343 764 
Q 2606 1063 2606 1700 
Q 2606 2309 2336 2618 
Q 2066 2928 1684 2928 
Q 1309 2928 1046 2623 
Q 784 2319 784 1719 
z
" transform="scale(0.015625)"/>
       </defs>
       <use xlink:href="#ArialMT-52"/>
       <use xlink:href="#ArialMT-65" transform="translate(72.216797 0)"/>
       <use xlink:href="#ArialMT-74" transform="translate(127.832031 0)"/>
       <use xlink:href="#ArialMT-72" transform="translate(155.615234 0)"/>
       <use xlink:href="#ArialMT-61" transform="translate(188.916016 0)"/>
       <use xlink:href="#ArialMT-69" transform="translate(244.53125 0)"/>
       <use xlink:href="#ArialMT-6e" transform="translate(266.748047 0)"/>
       <use xlink:href="#ArialMT-69" transform="translate(322.363281 0)"/>
       <use xlink:href="#ArialMT-6e" transform="translate(344.580078 0)"/>
       <use xlink:href="#ArialMT-67" transform="translate(400.195312 0)"/>
      </g>
     </g>
    </g>
    <g id="text_11">
     <!-- Loan Purpose -->
     <g style="fill: #262626" transform="translate(237.43011 344.845064) scale(0.12 -0.12)">
      <defs>
       <path id="ArialMT-4c" d="M 469 0 
L 469 4581 
L 1075 4581 
L 1075 541 
L 3331 541 
L 3331 0 
L 469 0 
z
" transform="scale(0.015625)"/>
       <path id="ArialMT-50" d="M 494 0 
L 494 4581 
L 2222 4581 
Q 2678 4581 2919 4538 
Q 3256 4481 3484 4323 
Q 3713 4166 3852 3881 
Q 3991 3597 3991 3256 
Q 3991 2672 3619 2267 
Q 3247 1863 2275 1863 
L 1100 1863 
L 1100 0 
L 494 0 
z
M 1100 2403 
L 2284 2403 
Q 2872 2403 3119 2622 
Q 3366 2841 3366 3238 
Q 3366 3525 3220 3729 
Q 3075 3934 2838 4000 
Q 2684 4041 2272 4041 
L 1100 4041 
L 1100 2403 
z
" transform="scale(0.015625)"/>
      </defs>
      <use xlink:href="#ArialMT-4c"/>
      <use xlink:href="#ArialMT-6f" transform="translate(55.615234 0)"/>
      <use xlink:href="#ArialMT-61" transform="translate(111.230469 0)"/>
      <use xlink:href="#ArialMT-6e" transform="translate(166.845703 0)"/>
      <use xlink:href="#ArialMT-20" transform="translate(222.460938 0)"/>
      <use xlink:href="#ArialMT-50" transform="translate(250.244141 0)"/>
      <use xlink:href="#ArialMT-75" transform="translate(316.943359 0)"/>
      <use xlink:href="#ArialMT-72" transform="translate(372.558594 0)"/>
      <use xlink:href="#ArialMT-70" transform="translate(405.859375 0)"/>
      <use xlink:href="#ArialMT-6f" transform="translate(461.474609 0)"/>
      <use xlink:href="#ArialMT-73" transform="translate(517.089844 0)"/>
      <use xlink:href="#ArialMT-65" transform="translate(567.089844 0)"/>
     </g>
    </g>
   </g>
   <g id="matplotlib.axis_2">
    <g id="ytick_1">
     <g id="line2d_1">
      <path d="M 55.62 243.445046 
L 493.958971 243.445046 
" clip-path="url(#p4576d9eba6)" style="fill: none; stroke: #cccccc; stroke-linecap: round"/>
     </g>
     <g id="text_12">
      <!-- 0 -->
      <g style="fill: #262626" transform="translate(40.002969 247.381842) scale(0.11 -0.11)">
       <defs>
        <path id="ArialMT-30" d="M 266 2259 
Q 266 3072 433 3567 
Q 600 4063 929 4331 
Q 1259 4600 1759 4600 
Q 2128 4600 2406 4451 
Q 2684 4303 2865 4023 
Q 3047 3744 3150 3342 
Q 3253 2941 3253 2259 
Q 3253 1453 3087 958 
Q 2922 463 2592 192 
Q 2263 -78 1759 -78 
Q 1097 -78 719 397 
Q 266 969 266 2259 
z
M 844 2259 
Q 844 1131 1108 757 
Q 1372 384 1759 384 
Q 2147 384 2411 759 
Q 2675 1134 2675 2259 
Q 2675 3391 2411 3762 
Q 2147 4134 1753 4134 
Q 1366 4134 1134 3806 
Q 844 3388 844 2259 
z
" transform="scale(0.015625)"/>
       </defs>
       <use xlink:href="#ArialMT-30"/>
      </g>
     </g>
    </g>
    <g id="ytick_2">
     <g id="line2d_2">
      <path d="M 55.62 196.309005 
L 493.958971 196.309005 
" clip-path="url(#p4576d9eba6)" style="fill: none; stroke: #cccccc; stroke-linecap: round"/>
     </g>
     <g id="text_13">
      <!-- 50 -->
      <g style="fill: #262626" transform="translate(33.885937 200.245801) scale(0.11 -0.11)">
       <defs>
        <path id="ArialMT-35" d="M 266 1200 
L 856 1250 
Q 922 819 1161 601 
Q 1400 384 1738 384 
Q 2144 384 2425 690 
Q 2706 997 2706 1503 
Q 2706 1984 2436 2262 
Q 2166 2541 1728 2541 
Q 1456 2541 1237 2417 
Q 1019 2294 894 2097 
L 366 2166 
L 809 4519 
L 3088 4519 
L 3088 3981 
L 1259 3981 
L 1013 2750 
Q 1425 3038 1878 3038 
Q 2478 3038 2890 2622 
Q 3303 2206 3303 1553 
Q 3303 931 2941 478 
Q 2500 -78 1738 -78 
Q 1113 -78 717 272 
Q 322 622 266 1200 
z
" transform="scale(0.015625)"/>
       </defs>
       <use xlink:href="#ArialMT-35"/>
       <use xlink:href="#ArialMT-30" transform="translate(55.615234 0)"/>
      </g>
     </g>
    </g>
    <g id="ytick_3">
     <g id="line2d_3">
      <path d="M 55.62 149.172964 
L 493.958971 149.172964 
" clip-path="url(#p4576d9eba6)" style="fill: none; stroke: #cccccc; stroke-linecap: round"/>
     </g>
     <g id="text_14">
      <!-- 100 -->
      <g style="fill: #262626" transform="translate(27.768906 153.10976) scale(0.11 -0.11)">
       <defs>
        <path id="ArialMT-31" d="M 2384 0 
L 1822 0 
L 1822 3584 
Q 1619 3391 1289 3197 
Q 959 3003 697 2906 
L 697 3450 
Q 1169 3672 1522 3987 
Q 1875 4303 2022 4600 
L 2384 4600 
L 2384 0 
z
" transform="scale(0.015625)"/>
       </defs>
       <use xlink:href="#ArialMT-31"/>
       <use xlink:href="#ArialMT-30" transform="translate(55.615234 0)"/>
       <use xlink:href="#ArialMT-30" transform="translate(111.230469 0)"/>
      </g>
     </g>
    </g>
    <g id="ytick_4">
     <g id="line2d_4">
      <path d="M 55.62 102.036923 
L 493.958971 102.036923 
" clip-path="url(#p4576d9eba6)" style="fill: none; stroke: #cccccc; stroke-linecap: round"/>
     </g>
     <g id="text_15">
      <!-- 150 -->
      <g style="fill: #262626" transform="translate(27.768906 105.97372) scale(0.11 -0.11)">
       <use xlink:href="#ArialMT-31"/>
       <use xlink:href="#ArialMT-35" transform="translate(55.615234 0)"/>
       <use xlink:href="#ArialMT-30" transform="translate(111.230469 0)"/>
      </g>
     </g>
    </g>
    <g id="ytick_5">
     <g id="line2d_5">
      <path d="M 55.62 54.900882 
L 493.958971 54.900882 
" clip-path="url(#p4576d9eba6)" style="fill: none; stroke: #cccccc; stroke-linecap: round"/>
     </g>
     <g id="text_16">
      <!-- 200 -->
      <g style="fill: #262626" transform="translate(27.768906 58.837679) scale(0.11 -0.11)">
       <defs>
        <path id="ArialMT-32" d="M 3222 541 
L 3222 0 
L 194 0 
Q 188 203 259 391 
Q 375 700 629 1000 
Q 884 1300 1366 1694 
Q 2113 2306 2375 2664 
Q 2638 3022 2638 3341 
Q 2638 3675 2398 3904 
Q 2159 4134 1775 4134 
Q 1369 4134 1125 3890 
Q 881 3647 878 3216 
L 300 3275 
Q 359 3922 746 4261 
Q 1134 4600 1788 4600 
Q 2447 4600 2831 4234 
Q 3216 3869 3216 3328 
Q 3216 3053 3103 2787 
Q 2991 2522 2730 2228 
Q 2469 1934 1863 1422 
Q 1356 997 1212 845 
Q 1069 694 975 541 
L 3222 541 
z
" transform="scale(0.015625)"/>
       </defs>
       <use xlink:href="#ArialMT-32"/>
       <use xlink:href="#ArialMT-30" transform="translate(55.615234 0)"/>
       <use xlink:href="#ArialMT-30" transform="translate(111.230469 0)"/>
      </g>
     </g>
    </g>
    <g id="text_17">
     <!-- count -->
     <g style="fill: #262626" transform="translate(21.383906 150.22721) rotate(-90) scale(0.12 -0.12)">
      <use xlink:href="#ArialMT-63"/>
      <use xlink:href="#ArialMT-6f" transform="translate(50 0)"/>
      <use xlink:href="#ArialMT-75" transform="translate(105.615234 0)"/>
      <use xlink:href="#ArialMT-6e" transform="translate(161.230469 0)"/>
      <use xlink:href="#ArialMT-74" transform="translate(216.845703 0)"/>
     </g>
    </g>
   </g>
   <g id="patch_3">
    <path d="M 60.00339 243.445046 
L 77.536949 243.445046 
L 77.536949 184.053634 
L 60.00339 184.053634 
z
" clip-path="url(#p4576d9eba6)" style="fill: #84d083; stroke: #ffffff; stroke-linejoin: miter"/>
   </g>
   <g id="patch_4">
    <path d="M 103.837287 243.445046 
L 121.370846 243.445046 
L 121.370846 106.750527 
L 103.837287 106.750527 
z
" clip-path="url(#p4576d9eba6)" style="fill: #84d083; stroke: #ffffff; stroke-linejoin: miter"/>
   </g>
   <g id="patch_5">
    <path d="M 147.671184 243.445046 
L 165.204743 243.445046 
L 165.204743 162.371055 
L 147.671184 162.371055 
z
" clip-path="url(#p4576d9eba6)" style="fill: #84d083; stroke: #ffffff; stroke-linejoin: miter"/>
   </g>
   <g id="patch_6">
    <path d="M 191.505081 243.445046 
L 209.03864 243.445046 
L 209.03864 235.903279 
L 191.505081 235.903279 
z
" clip-path="url(#p4576d9eba6)" style="fill: #84d083; stroke: #ffffff; stroke-linejoin: miter"/>
   </g>
   <g id="patch_7">
    <path d="M 235.338978 243.445046 
L 252.872537 243.445046 
L 252.872537 217.048863 
L 235.338978 217.048863 
z
" clip-path="url(#p4576d9eba6)" style="fill: #84d083; stroke: #ffffff; stroke-linejoin: miter"/>
   </g>
   <g id="patch_8">
    <path d="M 279.172875 243.445046 
L 296.706434 243.445046 
L 296.706434 127.490385 
L 279.172875 127.490385 
z
" clip-path="url(#p4576d9eba6)" style="fill: #84d083; stroke: #ffffff; stroke-linejoin: miter"/>
   </g>
   <g id="patch_9">
    <path d="M 323.006772 243.445046 
L 340.540331 243.445046 
L 340.540331 236.846 
L 323.006772 236.846 
z
" clip-path="url(#p4576d9eba6)" style="fill: #84d083; stroke: #ffffff; stroke-linejoin: miter"/>
   </g>
   <g id="patch_10">
    <path d="M 366.840669 243.445046 
L 384.374228 243.445046 
L 384.374228 37.931907 
L 366.840669 37.931907 
z
" clip-path="url(#p4576d9eba6)" style="fill: #84d083; stroke: #ffffff; stroke-linejoin: miter"/>
   </g>
   <g id="patch_11">
    <path d="M 410.674566 243.445046 
L 428.208125 243.445046 
L 428.208125 230.246954 
L 410.674566 230.246954 
z
" clip-path="url(#p4576d9eba6)" style="fill: #84d083; stroke: #ffffff; stroke-linejoin: miter"/>
   </g>
   <g id="patch_12">
    <path d="M 454.508463 243.445046 
L 472.042022 243.445046 
L 472.042022 235.903279 
L 454.508463 235.903279 
z
" clip-path="url(#p4576d9eba6)" style="fill: #84d083; stroke: #ffffff; stroke-linejoin: miter"/>
   </g>
   <g id="patch_13">
    <path d="M 77.536949 243.445046 
L 95.070507 243.445046 
L 95.070507 211.392538 
L 77.536949 211.392538 
z
" clip-path="url(#p4576d9eba6)" style="fill: #eb7b76; stroke: #ffffff; stroke-linejoin: miter"/>
   </g>
   <g id="patch_14">
    <path d="M 121.370846 243.445046 
L 138.904404 243.445046 
L 138.904404 159.542893 
L 121.370846 159.542893 
z
" clip-path="url(#p4576d9eba6)" style="fill: #eb7b76; stroke: #ffffff; stroke-linejoin: miter"/>
   </g>
   <g id="patch_15">
    <path d="M 165.204743 243.445046 
L 182.738302 243.445046 
L 182.738302 227.418792 
L 165.204743 227.418792 
z
" clip-path="url(#p4576d9eba6)" style="fill: #eb7b76; stroke: #ffffff; stroke-linejoin: miter"/>
   </g>
   <g id="patch_16">
    <path d="M 209.03864 243.445046 
L 226.572199 243.445046 
L 226.572199 239.674162 
L 209.03864 239.674162 
z
" clip-path="url(#p4576d9eba6)" style="fill: #eb7b76; stroke: #ffffff; stroke-linejoin: miter"/>
   </g>
   <g id="patch_17">
    <path d="M 252.872537 243.445046 
L 270.406096 243.445046 
L 270.406096 222.705188 
L 252.872537 222.705188 
z
" clip-path="url(#p4576d9eba6)" style="fill: #eb7b76; stroke: #ffffff; stroke-linejoin: miter"/>
   </g>
   <g id="patch_18">
    <path d="M 296.706434 243.445046 
L 314.239993 243.445046 
L 314.239993 188.767238 
L 296.706434 188.767238 
z
" clip-path="url(#p4576d9eba6)" style="fill: #eb7b76; stroke: #ffffff; stroke-linejoin: miter"/>
   </g>
   <g id="patch_19">
    <path d="M 340.540331 243.445046 
L 358.07389 243.445046 
L 358.07389 238.731441 
L 340.540331 238.731441 
z
" clip-path="url(#p4576d9eba6)" style="fill: #eb7b76; stroke: #ffffff; stroke-linejoin: miter"/>
   </g>
   <g id="patch_20">
    <path d="M 384.374228 243.445046 
L 401.907787 243.445046 
L 401.907787 184.996355 
L 384.374228 184.996355 
z
" clip-path="url(#p4576d9eba6)" style="fill: #eb7b76; stroke: #ffffff; stroke-linejoin: miter"/>
   </g>
   <g id="patch_21">
    <path d="M 428.208125 243.445046 
L 445.741684 243.445046 
L 445.741684 235.903279 
L 428.208125 235.903279 
z
" clip-path="url(#p4576d9eba6)" style="fill: #eb7b76; stroke: #ffffff; stroke-linejoin: miter"/>
   </g>
   <g id="patch_22">
    <path d="M 472.042022 243.445046 
L 489.575581 243.445046 
L 489.575581 242.502325 
L 472.042022 242.502325 
z
" clip-path="url(#p4576d9eba6)" style="fill: #eb7b76; stroke: #ffffff; stroke-linejoin: miter"/>
   </g>
   <g id="patch_23">
    <path d="M 77.536949 243.445046 
L 77.536949 243.445046 
L 77.536949 243.445046 
L 77.536949 243.445046 
z
" clip-path="url(#p4576d9eba6)" style="fill: #84d083; stroke: #ffffff; stroke-linejoin: miter"/>
   </g>
   <g id="patch_24">
    <path d="M 77.536949 243.445046 
L 77.536949 243.445046 
L 77.536949 243.445046 
L 77.536949 243.445046 
z
" clip-path="url(#p4576d9eba6)" style="fill: #eb7b76; stroke: #ffffff; stroke-linejoin: miter"/>
   </g>
   <g id="patch_25">
    <path d="M 55.62 243.445046 
L 55.62 27.65625 
" style="fill: none; stroke: #cccccc; stroke-width: 1.25; stroke-linejoin: miter; stroke-linecap: square"/>
   </g>
   <g id="patch_26">
    <path d="M 493.958971 243.445046 
L 493.958971 27.65625 
" style="fill: none; stroke: #cccccc; stroke-width: 1.25; stroke-linejoin: miter; stroke-linecap: square"/>
   </g>
   <g id="patch_27">
    <path d="M 55.62 243.445046 
L 493.958971 243.445046 
" style="fill: none; stroke: #cccccc; stroke-width: 1.25; stroke-linejoin: miter; stroke-linecap: square"/>
   </g>
   <g id="patch_28">
    <path d="M 55.62 27.65625 
L 493.958971 27.65625 
" style="fill: none; stroke: #cccccc; stroke-width: 1.25; stroke-linejoin: miter; stroke-linecap: square"/>
   </g>
   <g id="text_18">
    <!-- Loan Purpose by Risk (Count) -->
    <g style="fill: #262626" transform="translate(194.42136 21.65625) scale(0.12 -0.12)">
     <defs>
      <path id="ArialMT-62" d="M 941 0 
L 419 0 
L 419 4581 
L 981 4581 
L 981 2947 
Q 1338 3394 1891 3394 
Q 2197 3394 2470 3270 
Q 2744 3147 2920 2923 
Q 3097 2700 3197 2384 
Q 3297 2069 3297 1709 
Q 3297 856 2875 390 
Q 2453 -75 1863 -75 
Q 1275 -75 941 416 
L 941 0 
z
M 934 1684 
Q 934 1088 1097 822 
Q 1363 388 1816 388 
Q 2184 388 2453 708 
Q 2722 1028 2722 1663 
Q 2722 2313 2464 2622 
Q 2206 2931 1841 2931 
Q 1472 2931 1203 2611 
Q 934 2291 934 1684 
z
" transform="scale(0.015625)"/>
      <path id="ArialMT-79" d="M 397 -1278 
L 334 -750 
Q 519 -800 656 -800 
Q 844 -800 956 -737 
Q 1069 -675 1141 -563 
Q 1194 -478 1313 -144 
Q 1328 -97 1363 -6 
L 103 3319 
L 709 3319 
L 1400 1397 
Q 1534 1031 1641 628 
Q 1738 1016 1872 1384 
L 2581 3319 
L 3144 3319 
L 1881 -56 
Q 1678 -603 1566 -809 
Q 1416 -1088 1222 -1217 
Q 1028 -1347 759 -1347 
Q 597 -1347 397 -1278 
z
" transform="scale(0.015625)"/>
      <path id="ArialMT-6b" d="M 425 0 
L 425 4581 
L 988 4581 
L 988 1969 
L 2319 3319 
L 3047 3319 
L 1778 2088 
L 3175 0 
L 2481 0 
L 1384 1697 
L 988 1316 
L 988 0 
L 425 0 
z
" transform="scale(0.015625)"/>
     </defs>
     <use xlink:href="#ArialMT-4c"/>
     <use xlink:href="#ArialMT-6f" transform="translate(55.615234 0)"/>
     <use xlink:href="#ArialMT-61" transform="translate(111.230469 0)"/>
     <use xlink:href="#ArialMT-6e" transform="translate(166.845703 0)"/>
     <use xlink:href="#ArialMT-20" transform="translate(222.460938 0)"/>
     <use xlink:href="#ArialMT-50" transform="translate(250.244141 0)"/>
     <use xlink:href="#ArialMT-75" transform="translate(316.943359 0)"/>
     <use xlink:href="#ArialMT-72" transform="translate(372.558594 0)"/>
     <use xlink:href="#ArialMT-70" transform="translate(405.859375 0)"/>
     <use xlink:href="#ArialMT-6f" transform="translate(461.474609 0)"/>
     <use xlink:href="#ArialMT-73" transform="translate(517.089844 0)"/>
     <use xlink:href="#ArialMT-65" transform="translate(567.089844 0)"/>
     <use xlink:href="#ArialMT-20" transform="translate(622.705078 0)"/>
     <use xlink:href="#ArialMT-62" transform="translate(650.488281 0)"/>
     <use xlink:href="#ArialMT-79" transform="translate(706.103516 0)"/>
     <use xlink:href="#ArialMT-20" transform="translate(756.103516 0)"/>
     <use xlink:href="#ArialMT-52" transform="translate(783.886719 0)"/>
     <use xlink:href="#ArialMT-69" transform="translate(856.103516 0)"/>
     <use xlink:href="#ArialMT-73" transform="translate(878.320312 0)"/>
     <use xlink:href="#ArialMT-6b" transform="translate(928.320312 0)"/>
     <use xlink:href="#ArialMT-20" transform="translate(978.320312 0)"/>
     <use xlink:href="#ArialMT-28" transform="translate(1006.103516 0)"/>
     <use xlink:href="#ArialMT-43" transform="translate(1039.404297 0)"/>
     <use xlink:href="#ArialMT-6f" transform="translate(1111.621094 0)"/>
     <use xlink:href="#ArialMT-75" transform="translate(1167.236328 0)"/>
     <use xlink:href="#ArialMT-6e" transform="translate(1222.851562 0)"/>
     <use xlink:href="#ArialMT-74" transform="translate(1278.466797 0)"/>
     <use xlink:href="#ArialMT-29" transform="translate(1306.25 0)"/>
    </g>
   </g>
   <g id="legend_1">
    <g id="patch_29">
     <path d="M 63.32 84.050313 
L 170.44 84.050313 
Q 172.64 84.050313 172.64 81.850313 
L 172.64 35.35625 
Q 172.64 33.15625 170.44 33.15625 
L 63.32 33.15625 
Q 61.12 33.15625 61.12 35.35625 
L 61.12 81.850313 
Q 61.12 84.050313 63.32 84.050313 
z
" style="fill: #ffffff; opacity: 0.8; stroke: #cccccc; stroke-linejoin: miter"/>
    </g>
    <g id="text_19">
     <!-- Risk Label Mapped -->
     <g style="fill: #262626" transform="translate(65.52 46.145625) scale(0.12 -0.12)">
      <defs>
       <path id="ArialMT-4d" d="M 475 0 
L 475 4581 
L 1388 4581 
L 2472 1338 
Q 2622 884 2691 659 
Q 2769 909 2934 1394 
L 4031 4581 
L 4847 4581 
L 4847 0 
L 4263 0 
L 4263 3834 
L 2931 0 
L 2384 0 
L 1059 3900 
L 1059 0 
L 475 0 
z
" transform="scale(0.015625)"/>
      </defs>
      <use xlink:href="#ArialMT-52"/>
      <use xlink:href="#ArialMT-69" transform="translate(72.216797 0)"/>
      <use xlink:href="#ArialMT-73" transform="translate(94.433594 0)"/>
      <use xlink:href="#ArialMT-6b" transform="translate(144.433594 0)"/>
      <use xlink:href="#ArialMT-20" transform="translate(194.433594 0)"/>
      <use xlink:href="#ArialMT-4c" transform="translate(222.216797 0)"/>
      <use xlink:href="#ArialMT-61" transform="translate(277.832031 0)"/>
      <use xlink:href="#ArialMT-62" transform="translate(333.447266 0)"/>
      <use xlink:href="#ArialMT-65" transform="translate(389.0625 0)"/>
      <use xlink:href="#ArialMT-6c" transform="translate(444.677734 0)"/>
      <use xlink:href="#ArialMT-20" transform="translate(466.894531 0)"/>
      <use xlink:href="#ArialMT-4d" transform="translate(494.677734 0)"/>
      <use xlink:href="#ArialMT-61" transform="translate(577.978516 0)"/>
      <use xlink:href="#ArialMT-70" transform="translate(633.59375 0)"/>
      <use xlink:href="#ArialMT-70" transform="translate(689.208984 0)"/>
      <use xlink:href="#ArialMT-65" transform="translate(744.824219 0)"/>
      <use xlink:href="#ArialMT-64" transform="translate(800.439453 0)"/>
     </g>
    </g>
    <g id="patch_30">
     <path d="M 88.026484 61.904219 
L 110.026484 61.904219 
L 110.026484 54.204219 
L 88.026484 54.204219 
z
" style="fill: #84d083; stroke: #ffffff; stroke-linejoin: miter"/>
    </g>
    <g id="text_20">
     <!-- Good -->
     <g style="fill: #262626" transform="translate(118.826484 61.904219) scale(0.11 -0.11)">
      <defs>
       <path id="ArialMT-47" d="M 2638 1797 
L 2638 2334 
L 4578 2338 
L 4578 638 
Q 4131 281 3656 101 
Q 3181 -78 2681 -78 
Q 2006 -78 1454 211 
Q 903 500 622 1047 
Q 341 1594 341 2269 
Q 341 2938 620 3517 
Q 900 4097 1425 4378 
Q 1950 4659 2634 4659 
Q 3131 4659 3532 4498 
Q 3934 4338 4162 4050 
Q 4391 3763 4509 3300 
L 3963 3150 
Q 3859 3500 3706 3700 
Q 3553 3900 3268 4020 
Q 2984 4141 2638 4141 
Q 2222 4141 1919 4014 
Q 1616 3888 1430 3681 
Q 1244 3475 1141 3228 
Q 966 2803 966 2306 
Q 966 1694 1177 1281 
Q 1388 869 1791 669 
Q 2194 469 2647 469 
Q 3041 469 3416 620 
Q 3791 772 3984 944 
L 3984 1797 
L 2638 1797 
z
" transform="scale(0.015625)"/>
      </defs>
      <use xlink:href="#ArialMT-47"/>
      <use xlink:href="#ArialMT-6f" transform="translate(77.783203 0)"/>
      <use xlink:href="#ArialMT-6f" transform="translate(133.398438 0)"/>
      <use xlink:href="#ArialMT-64" transform="translate(189.013672 0)"/>
     </g>
    </g>
    <g id="patch_31">
     <path d="M 88.026484 77.464063 
L 110.026484 77.464063 
L 110.026484 69.764063 
L 88.026484 69.764063 
z
" style="fill: #eb7b76; stroke: #ffffff; stroke-linejoin: miter"/>
    </g>
    <g id="text_21">
     <!-- Bad -->
     <g style="fill: #262626" transform="translate(118.826484 77.464063) scale(0.11 -0.11)">
      <use xlink:href="#ArialMT-42"/>
      <use xlink:href="#ArialMT-61" transform="translate(66.699219 0)"/>
      <use xlink:href="#ArialMT-64" transform="translate(122.314453 0)"/>
     </g>
    </g>
   </g>
  </g>
  <g id="axes_2">
   <g id="patch_32">
    <path d="M 553.168125 243.445046 
L 991.507096 243.445046 
L 991.507096 27.65625 
L 553.168125 27.65625 
z
" style="fill: #ffffff"/>
   </g>
   <g id="matplotlib.axis_3">
    <g id="xtick_11">
     <g id="line2d_6">
      <path d="M 575.085074 243.445046 
L 575.085074 27.65625 
" clip-path="url(#pefc814f2d0)" style="fill: none; stroke: #cccccc; stroke-linecap: round"/>
     </g>
     <g id="text_22">
      <!-- Business -->
      <g style="fill: #262626" transform="translate(561.315882 290.072461) rotate(-45) scale(0.11 -0.11)">
       <use xlink:href="#ArialMT-42"/>
       <use xlink:href="#ArialMT-75" transform="translate(66.699219 0)"/>
       <use xlink:href="#ArialMT-73" transform="translate(122.314453 0)"/>
       <use xlink:href="#ArialMT-69" transform="translate(172.314453 0)"/>
       <use xlink:href="#ArialMT-6e" transform="translate(194.53125 0)"/>
       <use xlink:href="#ArialMT-65" transform="translate(250.146484 0)"/>
       <use xlink:href="#ArialMT-73" transform="translate(305.761719 0)"/>
       <use xlink:href="#ArialMT-73" transform="translate(355.761719 0)"/>
      </g>
     </g>
    </g>
    <g id="xtick_12">
     <g id="line2d_7">
      <path d="M 618.918971 243.445046 
L 618.918971 27.65625 
" clip-path="url(#pefc814f2d0)" style="fill: none; stroke: #cccccc; stroke-linecap: round"/>
     </g>
     <g id="text_23">
      <!-- Car (New) -->
      <g style="fill: #262626" transform="translate(603.214958 294.040545) rotate(-45) scale(0.11 -0.11)">
       <use xlink:href="#ArialMT-43"/>
       <use xlink:href="#ArialMT-61" transform="translate(72.216797 0)"/>
       <use xlink:href="#ArialMT-72" transform="translate(127.832031 0)"/>
       <use xlink:href="#ArialMT-20" transform="translate(161.132812 0)"/>
       <use xlink:href="#ArialMT-28" transform="translate(188.916016 0)"/>
       <use xlink:href="#ArialMT-4e" transform="translate(222.216797 0)"/>
       <use xlink:href="#ArialMT-65" transform="translate(294.433594 0)"/>
       <use xlink:href="#ArialMT-77" transform="translate(350.048828 0)"/>
       <use xlink:href="#ArialMT-29" transform="translate(422.265625 0)"/>
      </g>
     </g>
    </g>
    <g id="xtick_13">
     <g id="line2d_8">
      <path d="M 662.752868 243.445046 
L 662.752868 27.65625 
" clip-path="url(#pefc814f2d0)" style="fill: none; stroke: #cccccc; stroke-linecap: round"/>
     </g>
     <g id="text_24">
      <!-- Car (Used) -->
      <g style="fill: #262626" transform="translate(645.750264 296.637726) rotate(-45) scale(0.11 -0.11)">
       <use xlink:href="#ArialMT-43"/>
       <use xlink:href="#ArialMT-61" transform="translate(72.216797 0)"/>
       <use xlink:href="#ArialMT-72" transform="translate(127.832031 0)"/>
       <use xlink:href="#ArialMT-20" transform="translate(161.132812 0)"/>
       <use xlink:href="#ArialMT-28" transform="translate(188.916016 0)"/>
       <use xlink:href="#ArialMT-55" transform="translate(222.216797 0)"/>
       <use xlink:href="#ArialMT-73" transform="translate(294.433594 0)"/>
       <use xlink:href="#ArialMT-65" transform="translate(344.433594 0)"/>
       <use xlink:href="#ArialMT-64" transform="translate(400.048828 0)"/>
       <use xlink:href="#ArialMT-29" transform="translate(455.664062 0)"/>
      </g>
     </g>
    </g>
    <g id="xtick_14">
     <g id="line2d_9">
      <path d="M 706.586765 243.445046 
L 706.586765 27.65625 
" clip-path="url(#pefc814f2d0)" style="fill: none; stroke: #cccccc; stroke-linecap: round"/>
     </g>
     <g id="text_25">
      <!-- Domestic Appliances -->
      <g style="fill: #262626" transform="translate(672.498915 330.709777) rotate(-45) scale(0.11 -0.11)">
       <use xlink:href="#ArialMT-44"/>
       <use xlink:href="#ArialMT-6f" transform="translate(72.216797 0)"/>
       <use xlink:href="#ArialMT-6d" transform="translate(127.832031 0)"/>
       <use xlink:href="#ArialMT-65" transform="translate(211.132812 0)"/>
       <use xlink:href="#ArialMT-73" transform="translate(266.748047 0)"/>
       <use xlink:href="#ArialMT-74" transform="translate(316.748047 0)"/>
       <use xlink:href="#ArialMT-69" transform="translate(344.53125 0)"/>
       <use xlink:href="#ArialMT-63" transform="translate(366.748047 0)"/>
       <use xlink:href="#ArialMT-20" transform="translate(416.748047 0)"/>
       <use xlink:href="#ArialMT-41" transform="translate(439.03125 0)"/>
       <use xlink:href="#ArialMT-70" transform="translate(505.730469 0)"/>
       <use xlink:href="#ArialMT-70" transform="translate(561.345703 0)"/>
       <use xlink:href="#ArialMT-6c" transform="translate(616.960938 0)"/>
       <use xlink:href="#ArialMT-69" transform="translate(639.177734 0)"/>
       <use xlink:href="#ArialMT-61" transform="translate(661.394531 0)"/>
       <use xlink:href="#ArialMT-6e" transform="translate(717.009766 0)"/>
       <use xlink:href="#ArialMT-63" transform="translate(772.625 0)"/>
       <use xlink:href="#ArialMT-65" transform="translate(822.625 0)"/>
       <use xlink:href="#ArialMT-73" transform="translate(878.240234 0)"/>
      </g>
     </g>
    </g>
    <g id="xtick_15">
     <g id="line2d_10">
      <path d="M 750.420662 243.445046 
L 750.420662 27.65625 
" clip-path="url(#pefc814f2d0)" style="fill: none; stroke: #cccccc; stroke-linecap: round"/>
     </g>
     <g id="text_26">
      <!-- Education -->
      <g style="fill: #262626" transform="translate(735.134726 293.105949) rotate(-45) scale(0.11 -0.11)">
       <use xlink:href="#ArialMT-45"/>
       <use xlink:href="#ArialMT-64" transform="translate(66.699219 0)"/>
       <use xlink:href="#ArialMT-75" transform="translate(122.314453 0)"/>
       <use xlink:href="#ArialMT-63" transform="translate(177.929688 0)"/>
       <use xlink:href="#ArialMT-61" transform="translate(227.929688 0)"/>
       <use xlink:href="#ArialMT-74" transform="translate(283.544922 0)"/>
       <use xlink:href="#ArialMT-69" transform="translate(311.328125 0)"/>
       <use xlink:href="#ArialMT-6f" transform="translate(333.544922 0)"/>
       <use xlink:href="#ArialMT-6e" transform="translate(389.160156 0)"/>
      </g>
     </g>
    </g>
    <g id="xtick_16">
     <g id="line2d_11">
      <path d="M 794.254559 243.445046 
L 794.254559 27.65625 
" clip-path="url(#pefc814f2d0)" style="fill: none; stroke: #cccccc; stroke-linecap: round"/>
     </g>
     <g id="text_27">
      <!-- Furniture -->
      <g style="fill: #262626" transform="translate(780.704736 289.633723) rotate(-45) scale(0.11 -0.11)">
       <use xlink:href="#ArialMT-46"/>
       <use xlink:href="#ArialMT-75" transform="translate(61.083984 0)"/>
       <use xlink:href="#ArialMT-72" transform="translate(116.699219 0)"/>
       <use xlink:href="#ArialMT-6e" transform="translate(150 0)"/>
       <use xlink:href="#ArialMT-69" transform="translate(205.615234 0)"/>
       <use xlink:href="#ArialMT-74" transform="translate(227.832031 0)"/>
       <use xlink:href="#ArialMT-75" transform="translate(255.615234 0)"/>
       <use xlink:href="#ArialMT-72" transform="translate(311.230469 0)"/>
       <use xlink:href="#ArialMT-65" transform="translate(344.53125 0)"/>
      </g>
     </g>
    </g>
    <g id="xtick_17">
     <g id="line2d_12">
      <path d="M 838.088456 243.445046 
L 838.088456 27.65625 
" clip-path="url(#pefc814f2d0)" style="fill: none; stroke: #cccccc; stroke-linecap: round"/>
     </g>
     <g id="text_28">
      <!-- Other -->
      <g style="fill: #262626" transform="translate(830.373479 277.96403) rotate(-45) scale(0.11 -0.11)">
       <use xlink:href="#ArialMT-4f"/>
       <use xlink:href="#ArialMT-74" transform="translate(77.783203 0)"/>
       <use xlink:href="#ArialMT-68" transform="translate(105.566406 0)"/>
       <use xlink:href="#ArialMT-65" transform="translate(161.181641 0)"/>
       <use xlink:href="#ArialMT-72" transform="translate(216.796875 0)"/>
      </g>
     </g>
    </g>
    <g id="xtick_18">
     <g id="line2d_13">
      <path d="M 881.922353 243.445046 
L 881.922353 27.65625 
" clip-path="url(#pefc814f2d0)" style="fill: none; stroke: #cccccc; stroke-linecap: round"/>
     </g>
     <g id="text_29">
      <!-- Radio/TV -->
      <g style="fill: #262626" transform="translate(867.722323 290.934136) rotate(-45) scale(0.11 -0.11)">
       <use xlink:href="#ArialMT-52"/>
       <use xlink:href="#ArialMT-61" transform="translate(72.216797 0)"/>
       <use xlink:href="#ArialMT-64" transform="translate(127.832031 0)"/>
       <use xlink:href="#ArialMT-69" transform="translate(183.447266 0)"/>
       <use xlink:href="#ArialMT-6f" transform="translate(205.664062 0)"/>
       <use xlink:href="#ArialMT-2f" transform="translate(261.279297 0)"/>
       <use xlink:href="#ArialMT-54" transform="translate(289.0625 0)"/>
       <use xlink:href="#ArialMT-56" transform="translate(350.146484 0)"/>
      </g>
     </g>
    </g>
    <g id="xtick_19">
     <g id="line2d_14">
      <path d="M 925.75625 243.445046 
L 925.75625 27.65625 
" clip-path="url(#pefc814f2d0)" style="fill: none; stroke: #cccccc; stroke-linecap: round"/>
     </g>
     <g id="text_30">
      <!-- Repairs -->
      <g style="fill: #262626" transform="translate(914.366693 285.31319) rotate(-45) scale(0.11 -0.11)">
       <use xlink:href="#ArialMT-52"/>
       <use xlink:href="#ArialMT-65" transform="translate(72.216797 0)"/>
       <use xlink:href="#ArialMT-70" transform="translate(127.832031 0)"/>
       <use xlink:href="#ArialMT-61" transform="translate(183.447266 0)"/>
       <use xlink:href="#ArialMT-69" transform="translate(239.0625 0)"/>
       <use xlink:href="#ArialMT-72" transform="translate(261.279297 0)"/>
       <use xlink:href="#ArialMT-73" transform="translate(294.580078 0)"/>
      </g>
     </g>
    </g>
    <g id="xtick_20">
     <g id="line2d_15">
      <path d="M 969.590147 243.445046 
L 969.590147 27.65625 
" clip-path="url(#pefc814f2d0)" style="fill: none; stroke: #cccccc; stroke-linecap: round"/>
     </g>
     <g id="text_31">
      <!-- Retraining -->
      <g style="fill: #262626" transform="translate(953.829621 293.963978) rotate(-45) scale(0.11 -0.11)">
       <use xlink:href="#ArialMT-52"/>
       <use xlink:href="#ArialMT-65" transform="translate(72.216797 0)"/>
       <use xlink:href="#ArialMT-74" transform="translate(127.832031 0)"/>
       <use xlink:href="#ArialMT-72" transform="translate(155.615234 0)"/>
       <use xlink:href="#ArialMT-61" transform="translate(188.916016 0)"/>
       <use xlink:href="#ArialMT-69" transform="translate(244.53125 0)"/>
       <use xlink:href="#ArialMT-6e" transform="translate(266.748047 0)"/>
       <use xlink:href="#ArialMT-69" transform="translate(322.363281 0)"/>
       <use xlink:href="#ArialMT-6e" transform="translate(344.580078 0)"/>
       <use xlink:href="#ArialMT-67" transform="translate(400.195312 0)"/>
      </g>
     </g>
    </g>
    <g id="text_32">
     <!-- Loan Purpose -->
     <g style="fill: #262626" transform="translate(734.978235 344.845064) scale(0.12 -0.12)">
      <use xlink:href="#ArialMT-4c"/>
      <use xlink:href="#ArialMT-6f" transform="translate(55.615234 0)"/>
      <use xlink:href="#ArialMT-61" transform="translate(111.230469 0)"/>
      <use xlink:href="#ArialMT-6e" transform="translate(166.845703 0)"/>
      <use xlink:href="#ArialMT-20" transform="translate(222.460938 0)"/>
      <use xlink:href="#ArialMT-50" transform="translate(250.244141 0)"/>
      <use xlink:href="#ArialMT-75" transform="translate(316.943359 0)"/>
      <use xlink:href="#ArialMT-72" transform="translate(372.558594 0)"/>
      <use xlink:href="#ArialMT-70" transform="translate(405.859375 0)"/>
      <use xlink:href="#ArialMT-6f" transform="translate(461.474609 0)"/>
      <use xlink:href="#ArialMT-73" transform="translate(517.089844 0)"/>
      <use xlink:href="#ArialMT-65" transform="translate(567.089844 0)"/>
     </g>
    </g>
   </g>
   <g id="matplotlib.axis_4">
    <g id="ytick_6">
     <g id="line2d_16">
      <path d="M 553.168125 243.445046 
L 991.507096 243.445046 
" clip-path="url(#pefc814f2d0)" style="fill: none; stroke: #cccccc; stroke-linecap: round"/>
     </g>
     <g id="text_33">
      <!-- 0 -->
      <g style="fill: #262626" transform="translate(537.551094 247.381842) scale(0.11 -0.11)">
       <use xlink:href="#ArialMT-30"/>
      </g>
     </g>
    </g>
    <g id="ytick_7">
     <g id="line2d_17">
      <path d="M 553.168125 202.342418 
L 991.507096 202.342418 
" clip-path="url(#pefc814f2d0)" style="fill: none; stroke: #cccccc; stroke-linecap: round"/>
     </g>
     <g id="text_34">
      <!-- 20 -->
      <g style="fill: #262626" transform="translate(531.434063 206.279215) scale(0.11 -0.11)">
       <use xlink:href="#ArialMT-32"/>
       <use xlink:href="#ArialMT-30" transform="translate(55.615234 0)"/>
      </g>
     </g>
    </g>
    <g id="ytick_8">
     <g id="line2d_18">
      <path d="M 553.168125 161.23979 
L 991.507096 161.23979 
" clip-path="url(#pefc814f2d0)" style="fill: none; stroke: #cccccc; stroke-linecap: round"/>
     </g>
     <g id="text_35">
      <!-- 40 -->
      <g style="fill: #262626" transform="translate(531.434063 165.176587) scale(0.11 -0.11)">
       <defs>
        <path id="ArialMT-34" d="M 2069 0 
L 2069 1097 
L 81 1097 
L 81 1613 
L 2172 4581 
L 2631 4581 
L 2631 1613 
L 3250 1613 
L 3250 1097 
L 2631 1097 
L 2631 0 
L 2069 0 
z
M 2069 1613 
L 2069 3678 
L 634 1613 
L 2069 1613 
z
" transform="scale(0.015625)"/>
       </defs>
       <use xlink:href="#ArialMT-34"/>
       <use xlink:href="#ArialMT-30" transform="translate(55.615234 0)"/>
      </g>
     </g>
    </g>
    <g id="ytick_9">
     <g id="line2d_19">
      <path d="M 553.168125 120.137162 
L 991.507096 120.137162 
" clip-path="url(#pefc814f2d0)" style="fill: none; stroke: #cccccc; stroke-linecap: round"/>
     </g>
     <g id="text_36">
      <!-- 60 -->
      <g style="fill: #262626" transform="translate(531.434063 124.073959) scale(0.11 -0.11)">
       <defs>
        <path id="ArialMT-36" d="M 3184 3459 
L 2625 3416 
Q 2550 3747 2413 3897 
Q 2184 4138 1850 4138 
Q 1581 4138 1378 3988 
Q 1113 3794 959 3422 
Q 806 3050 800 2363 
Q 1003 2672 1297 2822 
Q 1591 2972 1913 2972 
Q 2475 2972 2870 2558 
Q 3266 2144 3266 1488 
Q 3266 1056 3080 686 
Q 2894 316 2569 119 
Q 2244 -78 1831 -78 
Q 1128 -78 684 439 
Q 241 956 241 2144 
Q 241 3472 731 4075 
Q 1159 4600 1884 4600 
Q 2425 4600 2770 4297 
Q 3116 3994 3184 3459 
z
M 888 1484 
Q 888 1194 1011 928 
Q 1134 663 1356 523 
Q 1578 384 1822 384 
Q 2178 384 2434 671 
Q 2691 959 2691 1453 
Q 2691 1928 2437 2201 
Q 2184 2475 1800 2475 
Q 1419 2475 1153 2201 
Q 888 1928 888 1484 
z
" transform="scale(0.015625)"/>
       </defs>
       <use xlink:href="#ArialMT-36"/>
       <use xlink:href="#ArialMT-30" transform="translate(55.615234 0)"/>
      </g>
     </g>
    </g>
    <g id="ytick_10">
     <g id="line2d_20">
      <path d="M 553.168125 79.034535 
L 991.507096 79.034535 
" clip-path="url(#pefc814f2d0)" style="fill: none; stroke: #cccccc; stroke-linecap: round"/>
     </g>
     <g id="text_37">
      <!-- 80 -->
      <g style="fill: #262626" transform="translate(531.434063 82.971332) scale(0.11 -0.11)">
       <defs>
        <path id="ArialMT-38" d="M 1131 2484 
Q 781 2613 612 2850 
Q 444 3088 444 3419 
Q 444 3919 803 4259 
Q 1163 4600 1759 4600 
Q 2359 4600 2725 4251 
Q 3091 3903 3091 3403 
Q 3091 3084 2923 2848 
Q 2756 2613 2416 2484 
Q 2838 2347 3058 2040 
Q 3278 1734 3278 1309 
Q 3278 722 2862 322 
Q 2447 -78 1769 -78 
Q 1091 -78 675 323 
Q 259 725 259 1325 
Q 259 1772 486 2073 
Q 713 2375 1131 2484 
z
M 1019 3438 
Q 1019 3113 1228 2906 
Q 1438 2700 1772 2700 
Q 2097 2700 2305 2904 
Q 2513 3109 2513 3406 
Q 2513 3716 2298 3927 
Q 2084 4138 1766 4138 
Q 1444 4138 1231 3931 
Q 1019 3725 1019 3438 
z
M 838 1322 
Q 838 1081 952 856 
Q 1066 631 1291 507 
Q 1516 384 1775 384 
Q 2178 384 2440 643 
Q 2703 903 2703 1303 
Q 2703 1709 2433 1975 
Q 2163 2241 1756 2241 
Q 1359 2241 1098 1978 
Q 838 1716 838 1322 
z
" transform="scale(0.015625)"/>
       </defs>
       <use xlink:href="#ArialMT-38"/>
       <use xlink:href="#ArialMT-30" transform="translate(55.615234 0)"/>
      </g>
     </g>
    </g>
    <g id="ytick_11">
     <g id="line2d_21">
      <path d="M 553.168125 37.931907 
L 991.507096 37.931907 
" clip-path="url(#pefc814f2d0)" style="fill: none; stroke: #cccccc; stroke-linecap: round"/>
     </g>
     <g id="text_38">
      <!-- 100 -->
      <g style="fill: #262626" transform="translate(525.317031 41.868704) scale(0.11 -0.11)">
       <use xlink:href="#ArialMT-31"/>
       <use xlink:href="#ArialMT-30" transform="translate(55.615234 0)"/>
       <use xlink:href="#ArialMT-30" transform="translate(111.230469 0)"/>
      </g>
     </g>
    </g>
    <g id="text_39">
     <!-- Percentage -->
     <g style="fill: #262626" transform="translate(518.791406 166.236898) rotate(-90) scale(0.12 -0.12)">
      <use xlink:href="#ArialMT-50"/>
      <use xlink:href="#ArialMT-65" transform="translate(66.699219 0)"/>
      <use xlink:href="#ArialMT-72" transform="translate(122.314453 0)"/>
      <use xlink:href="#ArialMT-63" transform="translate(155.615234 0)"/>
      <use xlink:href="#ArialMT-65" transform="translate(205.615234 0)"/>
      <use xlink:href="#ArialMT-6e" transform="translate(261.230469 0)"/>
      <use xlink:href="#ArialMT-74" transform="translate(316.845703 0)"/>
      <use xlink:href="#ArialMT-61" transform="translate(344.628906 0)"/>
      <use xlink:href="#ArialMT-67" transform="translate(400.244141 0)"/>
      <use xlink:href="#ArialMT-65" transform="translate(455.859375 0)"/>
     </g>
    </g>
   </g>
   <g id="patch_33">
    <path d="M 564.126599 243.445046 
L 586.043548 243.445046 
L 586.043548 109.96744 
L 564.126599 109.96744 
z
" clip-path="url(#pefc814f2d0)" style="fill: #77dd76; stroke: #ffffff; stroke-linejoin: miter"/>
   </g>
   <g id="patch_34">
    <path d="M 607.960496 243.445046 
L 629.877445 243.445046 
L 629.877445 116.097161 
L 607.960496 116.097161 
z
" clip-path="url(#pefc814f2d0)" style="fill: #77dd76; stroke: #ffffff; stroke-linejoin: miter"/>
   </g>
   <g id="patch_35">
    <path d="M 651.794393 243.445046 
L 673.711342 243.445046 
L 673.711342 71.851551 
L 651.794393 71.851551 
z
" clip-path="url(#pefc814f2d0)" style="fill: #77dd76; stroke: #ffffff; stroke-linejoin: miter"/>
   </g>
   <g id="patch_36">
    <path d="M 695.628291 243.445046 
L 717.545239 243.445046 
L 717.545239 106.436286 
L 695.628291 106.436286 
z
" clip-path="url(#pefc814f2d0)" style="fill: #77dd76; stroke: #ffffff; stroke-linejoin: miter"/>
   </g>
   <g id="patch_37">
    <path d="M 739.462188 243.445046 
L 761.379136 243.445046 
L 761.379136 128.357688 
L 739.462188 128.357688 
z
" clip-path="url(#pefc814f2d0)" style="fill: #77dd76; stroke: #ffffff; stroke-linejoin: miter"/>
   </g>
   <g id="patch_38">
    <path d="M 783.296085 243.445046 
L 805.213033 243.445046 
L 805.213033 103.786946 
L 783.296085 103.786946 
z
" clip-path="url(#pefc814f2d0)" style="fill: #77dd76; stroke: #ffffff; stroke-linejoin: miter"/>
   </g>
   <g id="patch_39">
    <path d="M 827.129982 243.445046 
L 849.04693 243.445046 
L 849.04693 123.562381 
L 827.129982 123.562381 
z
" clip-path="url(#pefc814f2d0)" style="fill: #77dd76; stroke: #ffffff; stroke-linejoin: miter"/>
   </g>
   <g id="patch_40">
    <path d="M 870.963879 243.445046 
L 892.880827 243.445046 
L 892.880827 83.438388 
L 870.963879 83.438388 
z
" clip-path="url(#pefc814f2d0)" style="fill: #77dd76; stroke: #ffffff; stroke-linejoin: miter"/>
   </g>
   <g id="patch_41">
    <path d="M 914.797776 243.445046 
L 936.714724 243.445046 
L 936.714724 112.663957 
L 914.797776 112.663957 
z
" clip-path="url(#pefc814f2d0)" style="fill: #77dd76; stroke: #ffffff; stroke-linejoin: miter"/>
   </g>
   <g id="patch_42">
    <path d="M 958.631673 243.445046 
L 980.548622 243.445046 
L 980.548622 60.7667 
L 958.631673 60.7667 
z
" clip-path="url(#pefc814f2d0)" style="fill: #77dd76; stroke: #ffffff; stroke-linejoin: miter"/>
   </g>
   <g id="patch_43">
    <path d="M 564.126599 109.96744 
L 586.043548 109.96744 
L 586.043548 37.931907 
L 564.126599 37.931907 
z
" clip-path="url(#pefc814f2d0)" style="fill: #ff6962; stroke: #ffffff; stroke-linejoin: miter"/>
   </g>
   <g id="patch_44">
    <path d="M 607.960496 116.097161 
L 629.877445 116.097161 
L 629.877445 37.931907 
L 607.960496 37.931907 
z
" clip-path="url(#pefc814f2d0)" style="fill: #ff6962; stroke: #ffffff; stroke-linejoin: miter"/>
   </g>
   <g id="patch_45">
    <path d="M 651.794393 71.851551 
L 673.711342 71.851551 
L 673.711342 37.931907 
L 651.794393 37.931907 
z
" clip-path="url(#pefc814f2d0)" style="fill: #ff6962; stroke: #ffffff; stroke-linejoin: miter"/>
   </g>
   <g id="patch_46">
    <path d="M 695.628291 106.436286 
L 717.545239 106.436286 
L 717.545239 37.931907 
L 695.628291 37.931907 
z
" clip-path="url(#pefc814f2d0)" style="fill: #ff6962; stroke: #ffffff; stroke-linejoin: miter"/>
   </g>
   <g id="patch_47">
    <path d="M 739.462188 128.357688 
L 761.379136 128.357688 
L 761.379136 37.931907 
L 739.462188 37.931907 
z
" clip-path="url(#pefc814f2d0)" style="fill: #ff6962; stroke: #ffffff; stroke-linejoin: miter"/>
   </g>
   <g id="patch_48">
    <path d="M 783.296085 103.786946 
L 805.213033 103.786946 
L 805.213033 37.931907 
L 783.296085 37.931907 
z
" clip-path="url(#pefc814f2d0)" style="fill: #ff6962; stroke: #ffffff; stroke-linejoin: miter"/>
   </g>
   <g id="patch_49">
    <path d="M 827.129982 123.562381 
L 849.04693 123.562381 
L 849.04693 37.931907 
L 827.129982 37.931907 
z
" clip-path="url(#pefc814f2d0)" style="fill: #ff6962; stroke: #ffffff; stroke-linejoin: miter"/>
   </g>
   <g id="patch_50">
    <path d="M 870.963879 83.438388 
L 892.880827 83.438388 
L 892.880827 37.931907 
L 870.963879 37.931907 
z
" clip-path="url(#pefc814f2d0)" style="fill: #ff6962; stroke: #ffffff; stroke-linejoin: miter"/>
   </g>
   <g id="patch_51">
    <path d="M 914.797776 112.663957 
L 936.714724 112.663957 
L 936.714724 37.931907 
L 914.797776 37.931907 
z
" clip-path="url(#pefc814f2d0)" style="fill: #ff6962; stroke: #ffffff; stroke-linejoin: miter"/>
   </g>
   <g id="patch_52">
    <path d="M 958.631673 60.7667 
L 980.548622 60.7667 
L 980.548622 37.931907 
L 958.631673 37.931907 
z
" clip-path="url(#pefc814f2d0)" style="fill: #ff6962; stroke: #ffffff; stroke-linejoin: miter"/>
   </g>
   <g id="patch_53">
    <path d="M 553.168125 243.445046 
L 553.168125 27.65625 
" style="fill: none; stroke: #cccccc; stroke-width: 1.25; stroke-linejoin: miter; stroke-linecap: square"/>
   </g>
   <g id="patch_54">
    <path d="M 991.507096 243.445046 
L 991.507096 27.65625 
" style="fill: none; stroke: #cccccc; stroke-width: 1.25; stroke-linejoin: miter; stroke-linecap: square"/>
   </g>
   <g id="patch_55">
    <path d="M 553.168125 243.445046 
L 991.507096 243.445046 
" style="fill: none; stroke: #cccccc; stroke-width: 1.25; stroke-linejoin: miter; stroke-linecap: square"/>
   </g>
   <g id="patch_56">
    <path d="M 553.168125 27.65625 
L 991.507096 27.65625 
" style="fill: none; stroke: #cccccc; stroke-width: 1.25; stroke-linejoin: miter; stroke-linecap: square"/>
   </g>
   <g id="text_40">
    <!-- Loan Purpose by Risk (%) -->
    <g style="fill: #262626" transform="translate(702.64386 21.65625) scale(0.12 -0.12)">
     <defs>
      <path id="ArialMT-25" d="M 372 3481 
Q 372 3972 619 4315 
Q 866 4659 1334 4659 
Q 1766 4659 2048 4351 
Q 2331 4044 2331 3447 
Q 2331 2866 2045 2552 
Q 1759 2238 1341 2238 
Q 925 2238 648 2547 
Q 372 2856 372 3481 
z
M 1350 4272 
Q 1141 4272 1002 4090 
Q 863 3909 863 3425 
Q 863 2984 1003 2804 
Q 1144 2625 1350 2625 
Q 1563 2625 1702 2806 
Q 1841 2988 1841 3469 
Q 1841 3913 1700 4092 
Q 1559 4272 1350 4272 
z
M 1353 -169 
L 3859 4659 
L 4316 4659 
L 1819 -169 
L 1353 -169 
z
M 3334 1075 
Q 3334 1569 3581 1911 
Q 3828 2253 4300 2253 
Q 4731 2253 5014 1945 
Q 5297 1638 5297 1041 
Q 5297 459 5011 145 
Q 4725 -169 4303 -169 
Q 3888 -169 3611 142 
Q 3334 453 3334 1075 
z
M 4316 1866 
Q 4103 1866 3964 1684 
Q 3825 1503 3825 1019 
Q 3825 581 3965 400 
Q 4106 219 4313 219 
Q 4528 219 4667 400 
Q 4806 581 4806 1063 
Q 4806 1506 4665 1686 
Q 4525 1866 4316 1866 
z
" transform="scale(0.015625)"/>
     </defs>
     <use xlink:href="#ArialMT-4c"/>
     <use xlink:href="#ArialMT-6f" transform="translate(55.615234 0)"/>
     <use xlink:href="#ArialMT-61" transform="translate(111.230469 0)"/>
     <use xlink:href="#ArialMT-6e" transform="translate(166.845703 0)"/>
     <use xlink:href="#ArialMT-20" transform="translate(222.460938 0)"/>
     <use xlink:href="#ArialMT-50" transform="translate(250.244141 0)"/>
     <use xlink:href="#ArialMT-75" transform="translate(316.943359 0)"/>
     <use xlink:href="#ArialMT-72" transform="translate(372.558594 0)"/>
     <use xlink:href="#ArialMT-70" transform="translate(405.859375 0)"/>
     <use xlink:href="#ArialMT-6f" transform="translate(461.474609 0)"/>
     <use xlink:href="#ArialMT-73" transform="translate(517.089844 0)"/>
     <use xlink:href="#ArialMT-65" transform="translate(567.089844 0)"/>
     <use xlink:href="#ArialMT-20" transform="translate(622.705078 0)"/>
     <use xlink:href="#ArialMT-62" transform="translate(650.488281 0)"/>
     <use xlink:href="#ArialMT-79" transform="translate(706.103516 0)"/>
     <use xlink:href="#ArialMT-20" transform="translate(756.103516 0)"/>
     <use xlink:href="#ArialMT-52" transform="translate(783.886719 0)"/>
     <use xlink:href="#ArialMT-69" transform="translate(856.103516 0)"/>
     <use xlink:href="#ArialMT-73" transform="translate(878.320312 0)"/>
     <use xlink:href="#ArialMT-6b" transform="translate(928.320312 0)"/>
     <use xlink:href="#ArialMT-20" transform="translate(978.320312 0)"/>
     <use xlink:href="#ArialMT-28" transform="translate(1006.103516 0)"/>
     <use xlink:href="#ArialMT-25" transform="translate(1039.404297 0)"/>
     <use xlink:href="#ArialMT-29" transform="translate(1128.320312 0)"/>
    </g>
   </g>
   <g id="legend_2">
    <g id="patch_57">
     <path d="M 560.868125 84.050313 
L 622.975156 84.050313 
Q 625.175156 84.050313 625.175156 81.850313 
L 625.175156 35.35625 
Q 625.175156 33.15625 622.975156 33.15625 
L 560.868125 33.15625 
Q 558.668125 33.15625 558.668125 35.35625 
L 558.668125 81.850313 
Q 558.668125 84.050313 560.868125 84.050313 
z
" style="fill: #ffffff; opacity: 0.8; stroke: #cccccc; stroke-linejoin: miter"/>
    </g>
    <g id="text_41">
     <!-- Risk Label -->
     <g style="fill: #262626" transform="translate(563.909141 46.145625) scale(0.12 -0.12)">
      <use xlink:href="#ArialMT-52"/>
      <use xlink:href="#ArialMT-69" transform="translate(72.216797 0)"/>
      <use xlink:href="#ArialMT-73" transform="translate(94.433594 0)"/>
      <use xlink:href="#ArialMT-6b" transform="translate(144.433594 0)"/>
      <use xlink:href="#ArialMT-20" transform="translate(194.433594 0)"/>
      <use xlink:href="#ArialMT-4c" transform="translate(222.216797 0)"/>
      <use xlink:href="#ArialMT-61" transform="translate(277.832031 0)"/>
      <use xlink:href="#ArialMT-62" transform="translate(333.447266 0)"/>
      <use xlink:href="#ArialMT-65" transform="translate(389.0625 0)"/>
      <use xlink:href="#ArialMT-6c" transform="translate(444.677734 0)"/>
     </g>
    </g>
    <g id="patch_58">
     <path d="M 563.068125 61.904219 
L 585.068125 61.904219 
L 585.068125 54.204219 
L 563.068125 54.204219 
z
" style="fill: #77dd76; stroke: #ffffff; stroke-linejoin: miter"/>
    </g>
    <g id="text_42">
     <!-- Good -->
     <g style="fill: #262626" transform="translate(593.868125 61.904219) scale(0.11 -0.11)">
      <use xlink:href="#ArialMT-47"/>
      <use xlink:href="#ArialMT-6f" transform="translate(77.783203 0)"/>
      <use xlink:href="#ArialMT-6f" transform="translate(133.398438 0)"/>
      <use xlink:href="#ArialMT-64" transform="translate(189.013672 0)"/>
     </g>
    </g>
    <g id="patch_59">
     <path d="M 563.068125 77.464063 
L 585.068125 77.464063 
L 585.068125 69.764063 
L 563.068125 69.764063 
z
" style="fill: #ff6962; stroke: #ffffff; stroke-linejoin: miter"/>
    </g>
    <g id="text_43">
     <!-- Bad -->
     <g style="fill: #262626" transform="translate(593.868125 77.464063) scale(0.11 -0.11)">
      <use xlink:href="#ArialMT-42"/>
      <use xlink:href="#ArialMT-61" transform="translate(66.699219 0)"/>
      <use xlink:href="#ArialMT-64" transform="translate(122.314453 0)"/>
     </g>
    </g>
   </g>
  </g>
 </g>
 <defs>
  <clipPath id="p4576d9eba6">
   <rect x="55.62" y="27.65625" width="438.338971" height="215.788796"/>
  </clipPath>
  <clipPath id="pefc814f2d0">
   <rect x="553.168125" y="27.65625" width="438.338971" height="215.788796"/>
  </clipPath>
 </defs>
</svg>
