<?xml version="1.0" encoding="utf-8" standalone="no"?>
<!DOCTYPE svg PUBLIC "-//W3C//DTD SVG 1.1//EN"
  "http://www.w3.org/Graphics/SVG/1.1/DTD/svg11.dtd">
<svg xmlns:xlink="http://www.w3.org/1999/xlink" width="1008pt" height="360pt" viewBox="0 0 1008 360" xmlns="http://www.w3.org/2000/svg" version="1.1">
 <metadata>
  <rdf:RDF xmlns:dc="http://purl.org/dc/elements/1.1/" xmlns:cc="http://creativecommons.org/ns#" xmlns:rdf="http://www.w3.org/1999/02/22-rdf-syntax-ns#">
   <cc:Work>
    <dc:type rdf:resource="http://purl.org/dc/dcmitype/StillImage"/>
    <dc:date>2025-04-22T20:23:24.182245</dc:date>
    <dc:format>image/svg+xml</dc:format>
    <dc:creator>
     <cc:Agent>
      <dc:title>Matplotlib v3.10.1, https://matplotlib.org/</dc:title>
     </cc:Agent>
    </dc:creator>
   </cc:Work>
  </rdf:RDF>
 </metadata>
 <defs>
  <style type="text/css">*{stroke-linejoin: round; stroke-linecap: butt}</style>
 </defs>
 <g id="figure_1">
  <g id="patch_1">
   <path d="M 0 360 
L 1008 360 
L 1008 0 
L 0 0 
z
" style="fill: #ffffff"/>
  </g>
  <g id="axes_1">
   <g id="patch_2">
    <path d="M 55.62 227.916981 
L 497.491875 227.916981 
L 497.491875 27.65625 
L 55.62 27.65625 
z
" style="fill: #ffffff"/>
   </g>
   <g id="matplotlib.axis_1">
    <g id="xtick_1">
     <g id="text_1">
      <!-- Female Divorced/Married -->
      <g style="fill: #262626" transform="translate(69.210367 330.293247) rotate(-45) scale(0.11 -0.11)">
       <defs>
        <path id="ArialMT-46" d="M 525 0 
L 525 4581 
L 3616 4581 
L 3616 4041 
L 1131 4041 
L 1131 2622 
L 3281 2622 
L 3281 2081 
L 1131 2081 
L 1131 0 
L 525 0 
z
" transform="scale(0.015625)"/>
        <path id="ArialMT-65" d="M 2694 1069 
L 3275 997 
Q 3138 488 2766 206 
Q 2394 -75 1816 -75 
Q 1088 -75 661 373 
Q 234 822 234 1631 
Q 234 2469 665 2931 
Q 1097 3394 1784 3394 
Q 2450 3394 2872 2941 
Q 3294 2488 3294 1666 
Q 3294 1616 3291 1516 
L 816 1516 
Q 847 969 1125 678 
Q 1403 388 1819 388 
Q 2128 388 2347 550 
Q 2566 713 2694 1069 
z
M 847 1978 
L 2700 1978 
Q 2663 2397 2488 2606 
Q 2219 2931 1791 2931 
Q 1403 2931 1139 2672 
Q 875 2413 847 1978 
z
" transform="scale(0.015625)"/>
        <path id="ArialMT-6d" d="M 422 0 
L 422 3319 
L 925 3319 
L 925 2853 
Q 1081 3097 1340 3245 
Q 1600 3394 1931 3394 
Q 2300 3394 2536 3241 
Q 2772 3088 2869 2813 
Q 3263 3394 3894 3394 
Q 4388 3394 4653 3120 
Q 4919 2847 4919 2278 
L 4919 0 
L 4359 0 
L 4359 2091 
Q 4359 2428 4304 2576 
Q 4250 2725 4106 2815 
Q 3963 2906 3769 2906 
Q 3419 2906 3187 2673 
Q 2956 2441 2956 1928 
L 2956 0 
L 2394 0 
L 2394 2156 
Q 2394 2531 2256 2718 
Q 2119 2906 1806 2906 
Q 1569 2906 1367 2781 
Q 1166 2656 1075 2415 
Q 984 2175 984 1722 
L 984 0 
L 422 0 
z
" transform="scale(0.015625)"/>
        <path id="ArialMT-61" d="M 2588 409 
Q 2275 144 1986 34 
Q 1697 -75 1366 -75 
Q 819 -75 525 192 
Q 231 459 231 875 
Q 231 1119 342 1320 
Q 453 1522 633 1644 
Q 813 1766 1038 1828 
Q 1203 1872 1538 1913 
Q 2219 1994 2541 2106 
Q 2544 2222 2544 2253 
Q 2544 2597 2384 2738 
Q 2169 2928 1744 2928 
Q 1347 2928 1158 2789 
Q 969 2650 878 2297 
L 328 2372 
Q 403 2725 575 2942 
Q 747 3159 1072 3276 
Q 1397 3394 1825 3394 
Q 2250 3394 2515 3294 
Q 2781 3194 2906 3042 
Q 3031 2891 3081 2659 
Q 3109 2516 3109 2141 
L 3109 1391 
Q 3109 606 3145 398 
Q 3181 191 3288 0 
L 2700 0 
Q 2613 175 2588 409 
z
M 2541 1666 
Q 2234 1541 1622 1453 
Q 1275 1403 1131 1340 
Q 988 1278 909 1158 
Q 831 1038 831 891 
Q 831 666 1001 516 
Q 1172 366 1500 366 
Q 1825 366 2078 508 
Q 2331 650 2450 897 
Q 2541 1088 2541 1459 
L 2541 1666 
z
" transform="scale(0.015625)"/>
        <path id="ArialMT-6c" d="M 409 0 
L 409 4581 
L 972 4581 
L 972 0 
L 409 0 
z
" transform="scale(0.015625)"/>
        <path id="ArialMT-20" transform="scale(0.015625)"/>
        <path id="ArialMT-44" d="M 494 0 
L 494 4581 
L 2072 4581 
Q 2606 4581 2888 4516 
Q 3281 4425 3559 4188 
Q 3922 3881 4101 3404 
Q 4281 2928 4281 2316 
Q 4281 1794 4159 1391 
Q 4038 988 3847 723 
Q 3656 459 3429 307 
Q 3203 156 2883 78 
Q 2563 0 2147 0 
L 494 0 
z
M 1100 541 
L 2078 541 
Q 2531 541 2789 625 
Q 3047 709 3200 863 
Q 3416 1078 3536 1442 
Q 3656 1806 3656 2325 
Q 3656 3044 3420 3430 
Q 3184 3816 2847 3947 
Q 2603 4041 2063 4041 
L 1100 4041 
L 1100 541 
z
" transform="scale(0.015625)"/>
        <path id="ArialMT-69" d="M 425 3934 
L 425 4581 
L 988 4581 
L 988 3934 
L 425 3934 
z
M 425 0 
L 425 3319 
L 988 3319 
L 988 0 
L 425 0 
z
" transform="scale(0.015625)"/>
        <path id="ArialMT-76" d="M 1344 0 
L 81 3319 
L 675 3319 
L 1388 1331 
Q 1503 1009 1600 663 
Q 1675 925 1809 1294 
L 2547 3319 
L 3125 3319 
L 1869 0 
L 1344 0 
z
" transform="scale(0.015625)"/>
        <path id="ArialMT-6f" d="M 213 1659 
Q 213 2581 725 3025 
Q 1153 3394 1769 3394 
Q 2453 3394 2887 2945 
Q 3322 2497 3322 1706 
Q 3322 1066 3130 698 
Q 2938 331 2570 128 
Q 2203 -75 1769 -75 
Q 1072 -75 642 372 
Q 213 819 213 1659 
z
M 791 1659 
Q 791 1022 1069 705 
Q 1347 388 1769 388 
Q 2188 388 2466 706 
Q 2744 1025 2744 1678 
Q 2744 2294 2464 2611 
Q 2184 2928 1769 2928 
Q 1347 2928 1069 2612 
Q 791 2297 791 1659 
z
" transform="scale(0.015625)"/>
        <path id="ArialMT-72" d="M 416 0 
L 416 3319 
L 922 3319 
L 922 2816 
Q 1116 3169 1280 3281 
Q 1444 3394 1641 3394 
Q 1925 3394 2219 3213 
L 2025 2691 
Q 1819 2813 1613 2813 
Q 1428 2813 1281 2702 
Q 1134 2591 1072 2394 
Q 978 2094 978 1738 
L 978 0 
L 416 0 
z
" transform="scale(0.015625)"/>
        <path id="ArialMT-63" d="M 2588 1216 
L 3141 1144 
Q 3050 572 2676 248 
Q 2303 -75 1759 -75 
Q 1078 -75 664 370 
Q 250 816 250 1647 
Q 250 2184 428 2587 
Q 606 2991 970 3192 
Q 1334 3394 1763 3394 
Q 2303 3394 2647 3120 
Q 2991 2847 3088 2344 
L 2541 2259 
Q 2463 2594 2264 2762 
Q 2066 2931 1784 2931 
Q 1359 2931 1093 2626 
Q 828 2322 828 1663 
Q 828 994 1084 691 
Q 1341 388 1753 388 
Q 2084 388 2306 591 
Q 2528 794 2588 1216 
z
" transform="scale(0.015625)"/>
        <path id="ArialMT-64" d="M 2575 0 
L 2575 419 
Q 2259 -75 1647 -75 
Q 1250 -75 917 144 
Q 584 363 401 755 
Q 219 1147 219 1656 
Q 219 2153 384 2558 
Q 550 2963 881 3178 
Q 1213 3394 1622 3394 
Q 1922 3394 2156 3267 
Q 2391 3141 2538 2938 
L 2538 4581 
L 3097 4581 
L 3097 0 
L 2575 0 
z
M 797 1656 
Q 797 1019 1065 703 
Q 1334 388 1700 388 
Q 2069 388 2326 689 
Q 2584 991 2584 1609 
Q 2584 2291 2321 2609 
Q 2059 2928 1675 2928 
Q 1300 2928 1048 2622 
Q 797 2316 797 1656 
z
" transform="scale(0.015625)"/>
        <path id="ArialMT-2f" d="M 0 -78 
L 1328 4659 
L 1778 4659 
L 453 -78 
L 0 -78 
z
" transform="scale(0.015625)"/>
        <path id="ArialMT-4d" d="M 475 0 
L 475 4581 
L 1388 4581 
L 2472 1338 
Q 2622 884 2691 659 
Q 2769 909 2934 1394 
L 4031 4581 
L 4847 4581 
L 4847 0 
L 4263 0 
L 4263 3834 
L 2931 0 
L 2384 0 
L 1059 3900 
L 1059 0 
L 475 0 
z
" transform="scale(0.015625)"/>
       </defs>
       <use xlink:href="#ArialMT-46"/>
       <use xlink:href="#ArialMT-65" transform="translate(61.083984 0)"/>
       <use xlink:href="#ArialMT-6d" transform="translate(116.699219 0)"/>
       <use xlink:href="#ArialMT-61" transform="translate(200 0)"/>
       <use xlink:href="#ArialMT-6c" transform="translate(255.615234 0)"/>
       <use xlink:href="#ArialMT-65" transform="translate(277.832031 0)"/>
       <use xlink:href="#ArialMT-20" transform="translate(333.447266 0)"/>
       <use xlink:href="#ArialMT-44" transform="translate(361.230469 0)"/>
       <use xlink:href="#ArialMT-69" transform="translate(433.447266 0)"/>
       <use xlink:href="#ArialMT-76" transform="translate(455.664062 0)"/>
       <use xlink:href="#ArialMT-6f" transform="translate(505.664062 0)"/>
       <use xlink:href="#ArialMT-72" transform="translate(561.279297 0)"/>
       <use xlink:href="#ArialMT-63" transform="translate(594.580078 0)"/>
       <use xlink:href="#ArialMT-65" transform="translate(644.580078 0)"/>
       <use xlink:href="#ArialMT-64" transform="translate(700.195312 0)"/>
       <use xlink:href="#ArialMT-2f" transform="translate(755.810547 0)"/>
       <use xlink:href="#ArialMT-4d" transform="translate(783.59375 0)"/>
       <use xlink:href="#ArialMT-61" transform="translate(866.894531 0)"/>
       <use xlink:href="#ArialMT-72" transform="translate(922.509766 0)"/>
       <use xlink:href="#ArialMT-72" transform="translate(955.810547 0)"/>
       <use xlink:href="#ArialMT-69" transform="translate(989.111328 0)"/>
       <use xlink:href="#ArialMT-65" transform="translate(1011.328125 0)"/>
       <use xlink:href="#ArialMT-64" transform="translate(1066.943359 0)"/>
      </g>
     </g>
    </g>
    <g id="xtick_2">
     <g id="text_2">
      <!-- Male Divorced/Separated -->
      <g style="fill: #262626" transform="translate(179.499681 330.84015) rotate(-45) scale(0.11 -0.11)">
       <defs>
        <path id="ArialMT-53" d="M 288 1472 
L 859 1522 
Q 900 1178 1048 958 
Q 1197 738 1509 602 
Q 1822 466 2213 466 
Q 2559 466 2825 569 
Q 3091 672 3220 851 
Q 3350 1031 3350 1244 
Q 3350 1459 3225 1620 
Q 3100 1781 2813 1891 
Q 2628 1963 1997 2114 
Q 1366 2266 1113 2400 
Q 784 2572 623 2826 
Q 463 3081 463 3397 
Q 463 3744 659 4045 
Q 856 4347 1234 4503 
Q 1613 4659 2075 4659 
Q 2584 4659 2973 4495 
Q 3363 4331 3572 4012 
Q 3781 3694 3797 3291 
L 3216 3247 
Q 3169 3681 2898 3903 
Q 2628 4125 2100 4125 
Q 1550 4125 1298 3923 
Q 1047 3722 1047 3438 
Q 1047 3191 1225 3031 
Q 1400 2872 2139 2705 
Q 2878 2538 3153 2413 
Q 3553 2228 3743 1945 
Q 3934 1663 3934 1294 
Q 3934 928 3725 604 
Q 3516 281 3123 101 
Q 2731 -78 2241 -78 
Q 1619 -78 1198 103 
Q 778 284 539 648 
Q 300 1013 288 1472 
z
" transform="scale(0.015625)"/>
        <path id="ArialMT-70" d="M 422 -1272 
L 422 3319 
L 934 3319 
L 934 2888 
Q 1116 3141 1344 3267 
Q 1572 3394 1897 3394 
Q 2322 3394 2647 3175 
Q 2972 2956 3137 2557 
Q 3303 2159 3303 1684 
Q 3303 1175 3120 767 
Q 2938 359 2589 142 
Q 2241 -75 1856 -75 
Q 1575 -75 1351 44 
Q 1128 163 984 344 
L 984 -1272 
L 422 -1272 
z
M 931 1641 
Q 931 1000 1190 694 
Q 1450 388 1819 388 
Q 2194 388 2461 705 
Q 2728 1022 2728 1688 
Q 2728 2322 2467 2637 
Q 2206 2953 1844 2953 
Q 1484 2953 1207 2617 
Q 931 2281 931 1641 
z
" transform="scale(0.015625)"/>
        <path id="ArialMT-74" d="M 1650 503 
L 1731 6 
Q 1494 -44 1306 -44 
Q 1000 -44 831 53 
Q 663 150 594 308 
Q 525 466 525 972 
L 525 2881 
L 113 2881 
L 113 3319 
L 525 3319 
L 525 4141 
L 1084 4478 
L 1084 3319 
L 1650 3319 
L 1650 2881 
L 1084 2881 
L 1084 941 
Q 1084 700 1114 631 
Q 1144 563 1211 522 
Q 1278 481 1403 481 
Q 1497 481 1650 503 
z
" transform="scale(0.015625)"/>
       </defs>
       <use xlink:href="#ArialMT-4d"/>
       <use xlink:href="#ArialMT-61" transform="translate(83.300781 0)"/>
       <use xlink:href="#ArialMT-6c" transform="translate(138.916016 0)"/>
       <use xlink:href="#ArialMT-65" transform="translate(161.132812 0)"/>
       <use xlink:href="#ArialMT-20" transform="translate(216.748047 0)"/>
       <use xlink:href="#ArialMT-44" transform="translate(244.53125 0)"/>
       <use xlink:href="#ArialMT-69" transform="translate(316.748047 0)"/>
       <use xlink:href="#ArialMT-76" transform="translate(338.964844 0)"/>
       <use xlink:href="#ArialMT-6f" transform="translate(388.964844 0)"/>
       <use xlink:href="#ArialMT-72" transform="translate(444.580078 0)"/>
       <use xlink:href="#ArialMT-63" transform="translate(477.880859 0)"/>
       <use xlink:href="#ArialMT-65" transform="translate(527.880859 0)"/>
       <use xlink:href="#ArialMT-64" transform="translate(583.496094 0)"/>
       <use xlink:href="#ArialMT-2f" transform="translate(639.111328 0)"/>
       <use xlink:href="#ArialMT-53" transform="translate(666.894531 0)"/>
       <use xlink:href="#ArialMT-65" transform="translate(733.59375 0)"/>
       <use xlink:href="#ArialMT-70" transform="translate(789.208984 0)"/>
       <use xlink:href="#ArialMT-61" transform="translate(844.824219 0)"/>
       <use xlink:href="#ArialMT-72" transform="translate(900.439453 0)"/>
       <use xlink:href="#ArialMT-61" transform="translate(933.740234 0)"/>
       <use xlink:href="#ArialMT-74" transform="translate(989.355469 0)"/>
       <use xlink:href="#ArialMT-65" transform="translate(1017.138672 0)"/>
       <use xlink:href="#ArialMT-64" transform="translate(1072.753906 0)"/>
      </g>
     </g>
    </g>
    <g id="xtick_3">
     <g id="text_3">
      <!-- Male Married/Widowed -->
      <g style="fill: #262626" transform="translate(294.034784 322.516287) rotate(-45) scale(0.11 -0.11)">
       <defs>
        <path id="ArialMT-57" d="M 1294 0 
L 78 4581 
L 700 4581 
L 1397 1578 
Q 1509 1106 1591 641 
Q 1766 1375 1797 1488 
L 2669 4581 
L 3400 4581 
L 4056 2263 
Q 4303 1400 4413 641 
Q 4500 1075 4641 1638 
L 5359 4581 
L 5969 4581 
L 4713 0 
L 4128 0 
L 3163 3491 
Q 3041 3928 3019 4028 
Q 2947 3713 2884 3491 
L 1913 0 
L 1294 0 
z
" transform="scale(0.015625)"/>
        <path id="ArialMT-77" d="M 1034 0 
L 19 3319 
L 600 3319 
L 1128 1403 
L 1325 691 
Q 1338 744 1497 1375 
L 2025 3319 
L 2603 3319 
L 3100 1394 
L 3266 759 
L 3456 1400 
L 4025 3319 
L 4572 3319 
L 3534 0 
L 2950 0 
L 2422 1988 
L 2294 2553 
L 1622 0 
L 1034 0 
z
" transform="scale(0.015625)"/>
       </defs>
       <use xlink:href="#ArialMT-4d"/>
       <use xlink:href="#ArialMT-61" transform="translate(83.300781 0)"/>
       <use xlink:href="#ArialMT-6c" transform="translate(138.916016 0)"/>
       <use xlink:href="#ArialMT-65" transform="translate(161.132812 0)"/>
       <use xlink:href="#ArialMT-20" transform="translate(216.748047 0)"/>
       <use xlink:href="#ArialMT-4d" transform="translate(244.53125 0)"/>
       <use xlink:href="#ArialMT-61" transform="translate(327.832031 0)"/>
       <use xlink:href="#ArialMT-72" transform="translate(383.447266 0)"/>
       <use xlink:href="#ArialMT-72" transform="translate(416.748047 0)"/>
       <use xlink:href="#ArialMT-69" transform="translate(450.048828 0)"/>
       <use xlink:href="#ArialMT-65" transform="translate(472.265625 0)"/>
       <use xlink:href="#ArialMT-64" transform="translate(527.880859 0)"/>
       <use xlink:href="#ArialMT-2f" transform="translate(583.496094 0)"/>
       <use xlink:href="#ArialMT-57" transform="translate(611.279297 0)"/>
       <use xlink:href="#ArialMT-69" transform="translate(705.664062 0)"/>
       <use xlink:href="#ArialMT-64" transform="translate(727.880859 0)"/>
       <use xlink:href="#ArialMT-6f" transform="translate(783.496094 0)"/>
       <use xlink:href="#ArialMT-77" transform="translate(839.111328 0)"/>
       <use xlink:href="#ArialMT-65" transform="translate(911.328125 0)"/>
       <use xlink:href="#ArialMT-64" transform="translate(966.943359 0)"/>
      </g>
     </g>
    </g>
    <g id="xtick_4">
     <g id="text_4">
      <!-- Male Single -->
      <g style="fill: #262626" transform="translate(423.95062 283.718996) rotate(-45) scale(0.11 -0.11)">
       <defs>
        <path id="ArialMT-6e" d="M 422 0 
L 422 3319 
L 928 3319 
L 928 2847 
Q 1294 3394 1984 3394 
Q 2284 3394 2536 3286 
Q 2788 3178 2913 3003 
Q 3038 2828 3088 2588 
Q 3119 2431 3119 2041 
L 3119 0 
L 2556 0 
L 2556 2019 
Q 2556 2363 2490 2533 
Q 2425 2703 2258 2804 
Q 2091 2906 1866 2906 
Q 1506 2906 1245 2678 
Q 984 2450 984 1813 
L 984 0 
L 422 0 
z
" transform="scale(0.015625)"/>
        <path id="ArialMT-67" d="M 319 -275 
L 866 -356 
Q 900 -609 1056 -725 
Q 1266 -881 1628 -881 
Q 2019 -881 2231 -725 
Q 2444 -569 2519 -288 
Q 2563 -116 2559 434 
Q 2191 0 1641 0 
Q 956 0 581 494 
Q 206 988 206 1678 
Q 206 2153 378 2554 
Q 550 2956 876 3175 
Q 1203 3394 1644 3394 
Q 2231 3394 2613 2919 
L 2613 3319 
L 3131 3319 
L 3131 450 
Q 3131 -325 2973 -648 
Q 2816 -972 2473 -1159 
Q 2131 -1347 1631 -1347 
Q 1038 -1347 672 -1080 
Q 306 -813 319 -275 
z
M 784 1719 
Q 784 1066 1043 766 
Q 1303 466 1694 466 
Q 2081 466 2343 764 
Q 2606 1063 2606 1700 
Q 2606 2309 2336 2618 
Q 2066 2928 1684 2928 
Q 1309 2928 1046 2623 
Q 784 2319 784 1719 
z
" transform="scale(0.015625)"/>
       </defs>
       <use xlink:href="#ArialMT-4d"/>
       <use xlink:href="#ArialMT-61" transform="translate(83.300781 0)"/>
       <use xlink:href="#ArialMT-6c" transform="translate(138.916016 0)"/>
       <use xlink:href="#ArialMT-65" transform="translate(161.132812 0)"/>
       <use xlink:href="#ArialMT-20" transform="translate(216.748047 0)"/>
       <use xlink:href="#ArialMT-53" transform="translate(244.53125 0)"/>
       <use xlink:href="#ArialMT-69" transform="translate(311.230469 0)"/>
       <use xlink:href="#ArialMT-6e" transform="translate(333.447266 0)"/>
       <use xlink:href="#ArialMT-67" transform="translate(389.0625 0)"/>
       <use xlink:href="#ArialMT-6c" transform="translate(444.677734 0)"/>
       <use xlink:href="#ArialMT-65" transform="translate(466.894531 0)"/>
      </g>
     </g>
    </g>
    <g id="text_5">
     <!-- Personal Status &amp; Sex -->
     <g style="fill: #262626" transform="translate(216.525937 344.975437) scale(0.12 -0.12)">
      <defs>
       <path id="ArialMT-50" d="M 494 0 
L 494 4581 
L 2222 4581 
Q 2678 4581 2919 4538 
Q 3256 4481 3484 4323 
Q 3713 4166 3852 3881 
Q 3991 3597 3991 3256 
Q 3991 2672 3619 2267 
Q 3247 1863 2275 1863 
L 1100 1863 
L 1100 0 
L 494 0 
z
M 1100 2403 
L 2284 2403 
Q 2872 2403 3119 2622 
Q 3366 2841 3366 3238 
Q 3366 3525 3220 3729 
Q 3075 3934 2838 4000 
Q 2684 4041 2272 4041 
L 1100 4041 
L 1100 2403 
z
" transform="scale(0.015625)"/>
       <path id="ArialMT-73" d="M 197 991 
L 753 1078 
Q 800 744 1014 566 
Q 1228 388 1613 388 
Q 2000 388 2187 545 
Q 2375 703 2375 916 
Q 2375 1106 2209 1216 
Q 2094 1291 1634 1406 
Q 1016 1563 777 1677 
Q 538 1791 414 1992 
Q 291 2194 291 2438 
Q 291 2659 392 2848 
Q 494 3038 669 3163 
Q 800 3259 1026 3326 
Q 1253 3394 1513 3394 
Q 1903 3394 2198 3281 
Q 2494 3169 2634 2976 
Q 2775 2784 2828 2463 
L 2278 2388 
Q 2241 2644 2061 2787 
Q 1881 2931 1553 2931 
Q 1166 2931 1000 2803 
Q 834 2675 834 2503 
Q 834 2394 903 2306 
Q 972 2216 1119 2156 
Q 1203 2125 1616 2013 
Q 2213 1853 2448 1751 
Q 2684 1650 2818 1456 
Q 2953 1263 2953 975 
Q 2953 694 2789 445 
Q 2625 197 2315 61 
Q 2006 -75 1616 -75 
Q 969 -75 630 194 
Q 291 463 197 991 
z
" transform="scale(0.015625)"/>
       <path id="ArialMT-75" d="M 2597 0 
L 2597 488 
Q 2209 -75 1544 -75 
Q 1250 -75 995 37 
Q 741 150 617 320 
Q 494 491 444 738 
Q 409 903 409 1263 
L 409 3319 
L 972 3319 
L 972 1478 
Q 972 1038 1006 884 
Q 1059 663 1231 536 
Q 1403 409 1656 409 
Q 1909 409 2131 539 
Q 2353 669 2445 892 
Q 2538 1116 2538 1541 
L 2538 3319 
L 3100 3319 
L 3100 0 
L 2597 0 
z
" transform="scale(0.015625)"/>
       <path id="ArialMT-26" d="M 3041 541 
Q 2763 231 2434 76 
Q 2106 -78 1725 -78 
Q 1022 -78 609 397 
Q 275 784 275 1263 
Q 275 1688 548 2030 
Q 822 2372 1366 2631 
Q 1056 2988 953 3209 
Q 850 3431 850 3638 
Q 850 4050 1173 4354 
Q 1497 4659 1988 4659 
Q 2456 4659 2754 4371 
Q 3053 4084 3053 3681 
Q 3053 3028 2188 2566 
L 3009 1519 
Q 3150 1794 3228 2156 
L 3813 2031 
Q 3663 1431 3406 1044 
Q 3722 625 4122 341 
L 3744 -106 
Q 3403 113 3041 541 
z
M 1897 2928 
Q 2263 3144 2370 3306 
Q 2478 3469 2478 3666 
Q 2478 3900 2329 4048 
Q 2181 4197 1959 4197 
Q 1731 4197 1579 4050 
Q 1428 3903 1428 3691 
Q 1428 3584 1483 3467 
Q 1538 3350 1647 3219 
L 1897 2928 
z
M 2688 984 
L 1656 2263 
Q 1200 1991 1040 1758 
Q 881 1525 881 1297 
Q 881 1019 1103 719 
Q 1325 419 1731 419 
Q 1984 419 2254 576 
Q 2525 734 2688 984 
z
" transform="scale(0.015625)"/>
       <path id="ArialMT-78" d="M 47 0 
L 1259 1725 
L 138 3319 
L 841 3319 
L 1350 2541 
Q 1494 2319 1581 2169 
Q 1719 2375 1834 2534 
L 2394 3319 
L 3066 3319 
L 1919 1756 
L 3153 0 
L 2463 0 
L 1781 1031 
L 1600 1309 
L 728 0 
L 47 0 
z
" transform="scale(0.015625)"/>
      </defs>
      <use xlink:href="#ArialMT-50"/>
      <use xlink:href="#ArialMT-65" transform="translate(66.699219 0)"/>
      <use xlink:href="#ArialMT-72" transform="translate(122.314453 0)"/>
      <use xlink:href="#ArialMT-73" transform="translate(155.615234 0)"/>
      <use xlink:href="#ArialMT-6f" transform="translate(205.615234 0)"/>
      <use xlink:href="#ArialMT-6e" transform="translate(261.230469 0)"/>
      <use xlink:href="#ArialMT-61" transform="translate(316.845703 0)"/>
      <use xlink:href="#ArialMT-6c" transform="translate(372.460938 0)"/>
      <use xlink:href="#ArialMT-20" transform="translate(394.677734 0)"/>
      <use xlink:href="#ArialMT-53" transform="translate(422.460938 0)"/>
      <use xlink:href="#ArialMT-74" transform="translate(489.160156 0)"/>
      <use xlink:href="#ArialMT-61" transform="translate(516.943359 0)"/>
      <use xlink:href="#ArialMT-74" transform="translate(572.558594 0)"/>
      <use xlink:href="#ArialMT-75" transform="translate(600.341797 0)"/>
      <use xlink:href="#ArialMT-73" transform="translate(655.957031 0)"/>
      <use xlink:href="#ArialMT-20" transform="translate(705.957031 0)"/>
      <use xlink:href="#ArialMT-26" transform="translate(733.740234 0)"/>
      <use xlink:href="#ArialMT-20" transform="translate(800.439453 0)"/>
      <use xlink:href="#ArialMT-53" transform="translate(828.222656 0)"/>
      <use xlink:href="#ArialMT-65" transform="translate(894.921875 0)"/>
      <use xlink:href="#ArialMT-78" transform="translate(950.537109 0)"/>
     </g>
    </g>
   </g>
   <g id="matplotlib.axis_2">
    <g id="ytick_1">
     <g id="line2d_1">
      <path d="M 55.62 227.916981 
L 497.491875 227.916981 
" clip-path="url(#p71a82e491c)" style="fill: none; stroke: #cccccc; stroke-linecap: round"/>
     </g>
     <g id="text_6">
      <!-- 0 -->
      <g style="fill: #262626" transform="translate(40.002969 231.853778) scale(0.11 -0.11)">
       <defs>
        <path id="ArialMT-30" d="M 266 2259 
Q 266 3072 433 3567 
Q 600 4063 929 4331 
Q 1259 4600 1759 4600 
Q 2128 4600 2406 4451 
Q 2684 4303 2865 4023 
Q 3047 3744 3150 3342 
Q 3253 2941 3253 2259 
Q 3253 1453 3087 958 
Q 2922 463 2592 192 
Q 2263 -78 1759 -78 
Q 1097 -78 719 397 
Q 266 969 266 2259 
z
M 844 2259 
Q 844 1131 1108 757 
Q 1372 384 1759 384 
Q 2147 384 2411 759 
Q 2675 1134 2675 2259 
Q 2675 3391 2411 3762 
Q 2147 4134 1753 4134 
Q 1366 4134 1134 3806 
Q 844 3388 844 2259 
z
" transform="scale(0.015625)"/>
       </defs>
       <use xlink:href="#ArialMT-30"/>
      </g>
     </g>
    </g>
    <g id="ytick_2">
     <g id="line2d_2">
      <path d="M 55.62 204.195027 
L 497.491875 204.195027 
" clip-path="url(#p71a82e491c)" style="fill: none; stroke: #cccccc; stroke-linecap: round"/>
     </g>
     <g id="text_7">
      <!-- 50 -->
      <g style="fill: #262626" transform="translate(33.885937 208.131824) scale(0.11 -0.11)">
       <defs>
        <path id="ArialMT-35" d="M 266 1200 
L 856 1250 
Q 922 819 1161 601 
Q 1400 384 1738 384 
Q 2144 384 2425 690 
Q 2706 997 2706 1503 
Q 2706 1984 2436 2262 
Q 2166 2541 1728 2541 
Q 1456 2541 1237 2417 
Q 1019 2294 894 2097 
L 366 2166 
L 809 4519 
L 3088 4519 
L 3088 3981 
L 1259 3981 
L 1013 2750 
Q 1425 3038 1878 3038 
Q 2478 3038 2890 2622 
Q 3303 2206 3303 1553 
Q 3303 931 2941 478 
Q 2500 -78 1738 -78 
Q 1113 -78 717 272 
Q 322 622 266 1200 
z
" transform="scale(0.015625)"/>
       </defs>
       <use xlink:href="#ArialMT-35"/>
       <use xlink:href="#ArialMT-30" transform="translate(55.615234 0)"/>
      </g>
     </g>
    </g>
    <g id="ytick_3">
     <g id="line2d_3">
      <path d="M 55.62 180.473074 
L 497.491875 180.473074 
" clip-path="url(#p71a82e491c)" style="fill: none; stroke: #cccccc; stroke-linecap: round"/>
     </g>
     <g id="text_8">
      <!-- 100 -->
      <g style="fill: #262626" transform="translate(27.768906 184.409871) scale(0.11 -0.11)">
       <defs>
        <path id="ArialMT-31" d="M 2384 0 
L 1822 0 
L 1822 3584 
Q 1619 3391 1289 3197 
Q 959 3003 697 2906 
L 697 3450 
Q 1169 3672 1522 3987 
Q 1875 4303 2022 4600 
L 2384 4600 
L 2384 0 
z
" transform="scale(0.015625)"/>
       </defs>
       <use xlink:href="#ArialMT-31"/>
       <use xlink:href="#ArialMT-30" transform="translate(55.615234 0)"/>
       <use xlink:href="#ArialMT-30" transform="translate(111.230469 0)"/>
      </g>
     </g>
    </g>
    <g id="ytick_4">
     <g id="line2d_4">
      <path d="M 55.62 156.75112 
L 497.491875 156.75112 
" clip-path="url(#p71a82e491c)" style="fill: none; stroke: #cccccc; stroke-linecap: round"/>
     </g>
     <g id="text_9">
      <!-- 150 -->
      <g style="fill: #262626" transform="translate(27.768906 160.687917) scale(0.11 -0.11)">
       <use xlink:href="#ArialMT-31"/>
       <use xlink:href="#ArialMT-35" transform="translate(55.615234 0)"/>
       <use xlink:href="#ArialMT-30" transform="translate(111.230469 0)"/>
      </g>
     </g>
    </g>
    <g id="ytick_5">
     <g id="line2d_5">
      <path d="M 55.62 133.029167 
L 497.491875 133.029167 
" clip-path="url(#p71a82e491c)" style="fill: none; stroke: #cccccc; stroke-linecap: round"/>
     </g>
     <g id="text_10">
      <!-- 200 -->
      <g style="fill: #262626" transform="translate(27.768906 136.965964) scale(0.11 -0.11)">
       <defs>
        <path id="ArialMT-32" d="M 3222 541 
L 3222 0 
L 194 0 
Q 188 203 259 391 
Q 375 700 629 1000 
Q 884 1300 1366 1694 
Q 2113 2306 2375 2664 
Q 2638 3022 2638 3341 
Q 2638 3675 2398 3904 
Q 2159 4134 1775 4134 
Q 1369 4134 1125 3890 
Q 881 3647 878 3216 
L 300 3275 
Q 359 3922 746 4261 
Q 1134 4600 1788 4600 
Q 2447 4600 2831 4234 
Q 3216 3869 3216 3328 
Q 3216 3053 3103 2787 
Q 2991 2522 2730 2228 
Q 2469 1934 1863 1422 
Q 1356 997 1212 845 
Q 1069 694 975 541 
L 3222 541 
z
" transform="scale(0.015625)"/>
       </defs>
       <use xlink:href="#ArialMT-32"/>
       <use xlink:href="#ArialMT-30" transform="translate(55.615234 0)"/>
       <use xlink:href="#ArialMT-30" transform="translate(111.230469 0)"/>
      </g>
     </g>
    </g>
    <g id="ytick_6">
     <g id="line2d_6">
      <path d="M 55.62 109.307214 
L 497.491875 109.307214 
" clip-path="url(#p71a82e491c)" style="fill: none; stroke: #cccccc; stroke-linecap: round"/>
     </g>
     <g id="text_11">
      <!-- 250 -->
      <g style="fill: #262626" transform="translate(27.768906 113.24401) scale(0.11 -0.11)">
       <use xlink:href="#ArialMT-32"/>
       <use xlink:href="#ArialMT-35" transform="translate(55.615234 0)"/>
       <use xlink:href="#ArialMT-30" transform="translate(111.230469 0)"/>
      </g>
     </g>
    </g>
    <g id="ytick_7">
     <g id="line2d_7">
      <path d="M 55.62 85.58526 
L 497.491875 85.58526 
" clip-path="url(#p71a82e491c)" style="fill: none; stroke: #cccccc; stroke-linecap: round"/>
     </g>
     <g id="text_12">
      <!-- 300 -->
      <g style="fill: #262626" transform="translate(27.768906 89.522057) scale(0.11 -0.11)">
       <defs>
        <path id="ArialMT-33" d="M 269 1209 
L 831 1284 
Q 928 806 1161 595 
Q 1394 384 1728 384 
Q 2125 384 2398 659 
Q 2672 934 2672 1341 
Q 2672 1728 2419 1979 
Q 2166 2231 1775 2231 
Q 1616 2231 1378 2169 
L 1441 2663 
Q 1497 2656 1531 2656 
Q 1891 2656 2178 2843 
Q 2466 3031 2466 3422 
Q 2466 3731 2256 3934 
Q 2047 4138 1716 4138 
Q 1388 4138 1169 3931 
Q 950 3725 888 3313 
L 325 3413 
Q 428 3978 793 4289 
Q 1159 4600 1703 4600 
Q 2078 4600 2393 4439 
Q 2709 4278 2876 4000 
Q 3044 3722 3044 3409 
Q 3044 3113 2884 2869 
Q 2725 2625 2413 2481 
Q 2819 2388 3044 2092 
Q 3269 1797 3269 1353 
Q 3269 753 2831 336 
Q 2394 -81 1725 -81 
Q 1122 -81 723 278 
Q 325 638 269 1209 
z
" transform="scale(0.015625)"/>
       </defs>
       <use xlink:href="#ArialMT-33"/>
       <use xlink:href="#ArialMT-30" transform="translate(55.615234 0)"/>
       <use xlink:href="#ArialMT-30" transform="translate(111.230469 0)"/>
      </g>
     </g>
    </g>
    <g id="ytick_8">
     <g id="line2d_8">
      <path d="M 55.62 61.863307 
L 497.491875 61.863307 
" clip-path="url(#p71a82e491c)" style="fill: none; stroke: #cccccc; stroke-linecap: round"/>
     </g>
     <g id="text_13">
      <!-- 350 -->
      <g style="fill: #262626" transform="translate(27.768906 65.800104) scale(0.11 -0.11)">
       <use xlink:href="#ArialMT-33"/>
       <use xlink:href="#ArialMT-35" transform="translate(55.615234 0)"/>
       <use xlink:href="#ArialMT-30" transform="translate(111.230469 0)"/>
      </g>
     </g>
    </g>
    <g id="ytick_9">
     <g id="line2d_9">
      <path d="M 55.62 38.141353 
L 497.491875 38.141353 
" clip-path="url(#p71a82e491c)" style="fill: none; stroke: #cccccc; stroke-linecap: round"/>
     </g>
     <g id="text_14">
      <!-- 400 -->
      <g style="fill: #262626" transform="translate(27.768906 42.07815) scale(0.11 -0.11)">
       <defs>
        <path id="ArialMT-34" d="M 2069 0 
L 2069 1097 
L 81 1097 
L 81 1613 
L 2172 4581 
L 2631 4581 
L 2631 1613 
L 3250 1613 
L 3250 1097 
L 2631 1097 
L 2631 0 
L 2069 0 
z
M 2069 1613 
L 2069 3678 
L 634 1613 
L 2069 1613 
z
" transform="scale(0.015625)"/>
       </defs>
       <use xlink:href="#ArialMT-34"/>
       <use xlink:href="#ArialMT-30" transform="translate(55.615234 0)"/>
       <use xlink:href="#ArialMT-30" transform="translate(111.230469 0)"/>
      </g>
     </g>
    </g>
    <g id="text_15">
     <!-- count -->
     <g style="fill: #262626" transform="translate(21.383906 142.463178) rotate(-90) scale(0.12 -0.12)">
      <use xlink:href="#ArialMT-63"/>
      <use xlink:href="#ArialMT-6f" transform="translate(50 0)"/>
      <use xlink:href="#ArialMT-75" transform="translate(105.615234 0)"/>
      <use xlink:href="#ArialMT-6e" transform="translate(161.230469 0)"/>
      <use xlink:href="#ArialMT-74" transform="translate(216.845703 0)"/>
     </g>
    </g>
   </g>
   <g id="patch_3">
    <path d="M 66.666797 227.916981 
L 110.853984 227.916981 
L 110.853984 132.554728 
L 66.666797 132.554728 
z
" clip-path="url(#p71a82e491c)" style="fill: #84d083; stroke: #ffffff; stroke-linejoin: miter"/>
   </g>
   <g id="patch_4">
    <path d="M 177.134766 227.916981 
L 221.321953 227.916981 
L 221.321953 213.683809 
L 177.134766 213.683809 
z
" clip-path="url(#p71a82e491c)" style="fill: #84d083; stroke: #ffffff; stroke-linejoin: miter"/>
   </g>
   <g id="patch_5">
    <path d="M 287.602734 227.916981 
L 331.789922 227.916981 
L 331.789922 196.129563 
L 287.602734 196.129563 
z
" clip-path="url(#p71a82e491c)" style="fill: #84d083; stroke: #ffffff; stroke-linejoin: miter"/>
   </g>
   <g id="patch_6">
    <path d="M 398.070703 227.916981 
L 442.257891 227.916981 
L 442.257891 37.192475 
L 398.070703 37.192475 
z
" clip-path="url(#p71a82e491c)" style="fill: #84d083; stroke: #ffffff; stroke-linejoin: miter"/>
   </g>
   <g id="patch_7">
    <path d="M 110.853984 227.916981 
L 155.041172 227.916981 
L 155.041172 176.203122 
L 110.853984 176.203122 
z
" clip-path="url(#p71a82e491c)" style="fill: #eb7b76; stroke: #ffffff; stroke-linejoin: miter"/>
   </g>
   <g id="patch_8">
    <path d="M 221.321953 227.916981 
L 265.509141 227.916981 
L 265.509141 218.428199 
L 221.321953 218.428199 
z
" clip-path="url(#p71a82e491c)" style="fill: #eb7b76; stroke: #ffffff; stroke-linejoin: miter"/>
   </g>
   <g id="patch_9">
    <path d="M 331.789922 227.916981 
L 375.977109 227.916981 
L 375.977109 216.056004 
L 331.789922 216.056004 
z
" clip-path="url(#p71a82e491c)" style="fill: #eb7b76; stroke: #ffffff; stroke-linejoin: miter"/>
   </g>
   <g id="patch_10">
    <path d="M 442.257891 227.916981 
L 486.445078 227.916981 
L 486.445078 158.648877 
L 442.257891 158.648877 
z
" clip-path="url(#p71a82e491c)" style="fill: #eb7b76; stroke: #ffffff; stroke-linejoin: miter"/>
   </g>
   <g id="patch_11">
    <path d="M 110.853984 227.916981 
L 110.853984 227.916981 
L 110.853984 227.916981 
L 110.853984 227.916981 
z
" clip-path="url(#p71a82e491c)" style="fill: #84d083; stroke: #ffffff; stroke-linejoin: miter"/>
   </g>
   <g id="patch_12">
    <path d="M 110.853984 227.916981 
L 110.853984 227.916981 
L 110.853984 227.916981 
L 110.853984 227.916981 
z
" clip-path="url(#p71a82e491c)" style="fill: #eb7b76; stroke: #ffffff; stroke-linejoin: miter"/>
   </g>
   <g id="patch_13">
    <path d="M 55.62 227.916981 
L 55.62 27.65625 
" style="fill: none; stroke: #cccccc; stroke-width: 1.25; stroke-linejoin: miter; stroke-linecap: square"/>
   </g>
   <g id="patch_14">
    <path d="M 497.491875 227.916981 
L 497.491875 27.65625 
" style="fill: none; stroke: #cccccc; stroke-width: 1.25; stroke-linejoin: miter; stroke-linecap: square"/>
   </g>
   <g id="patch_15">
    <path d="M 55.62 227.916981 
L 497.491875 227.916981 
" style="fill: none; stroke: #cccccc; stroke-width: 1.25; stroke-linejoin: miter; stroke-linecap: square"/>
   </g>
   <g id="patch_16">
    <path d="M 55.62 27.65625 
L 497.491875 27.65625 
" style="fill: none; stroke: #cccccc; stroke-width: 1.25; stroke-linejoin: miter; stroke-linecap: square"/>
   </g>
   <g id="text_16">
    <!-- Personal Status &amp; Sex by Risk (Count) -->
    <g style="fill: #262626" transform="translate(173.517187 21.65625) scale(0.12 -0.12)">
     <defs>
      <path id="ArialMT-62" d="M 941 0 
L 419 0 
L 419 4581 
L 981 4581 
L 981 2947 
Q 1338 3394 1891 3394 
Q 2197 3394 2470 3270 
Q 2744 3147 2920 2923 
Q 3097 2700 3197 2384 
Q 3297 2069 3297 1709 
Q 3297 856 2875 390 
Q 2453 -75 1863 -75 
Q 1275 -75 941 416 
L 941 0 
z
M 934 1684 
Q 934 1088 1097 822 
Q 1363 388 1816 388 
Q 2184 388 2453 708 
Q 2722 1028 2722 1663 
Q 2722 2313 2464 2622 
Q 2206 2931 1841 2931 
Q 1472 2931 1203 2611 
Q 934 2291 934 1684 
z
" transform="scale(0.015625)"/>
      <path id="ArialMT-79" d="M 397 -1278 
L 334 -750 
Q 519 -800 656 -800 
Q 844 -800 956 -737 
Q 1069 -675 1141 -563 
Q 1194 -478 1313 -144 
Q 1328 -97 1363 -6 
L 103 3319 
L 709 3319 
L 1400 1397 
Q 1534 1031 1641 628 
Q 1738 1016 1872 1384 
L 2581 3319 
L 3144 3319 
L 1881 -56 
Q 1678 -603 1566 -809 
Q 1416 -1088 1222 -1217 
Q 1028 -1347 759 -1347 
Q 597 -1347 397 -1278 
z
" transform="scale(0.015625)"/>
      <path id="ArialMT-52" d="M 503 0 
L 503 4581 
L 2534 4581 
Q 3147 4581 3465 4457 
Q 3784 4334 3975 4021 
Q 4166 3709 4166 3331 
Q 4166 2844 3850 2509 
Q 3534 2175 2875 2084 
Q 3116 1969 3241 1856 
Q 3506 1613 3744 1247 
L 4541 0 
L 3778 0 
L 3172 953 
Q 2906 1366 2734 1584 
Q 2563 1803 2427 1890 
Q 2291 1978 2150 2013 
Q 2047 2034 1813 2034 
L 1109 2034 
L 1109 0 
L 503 0 
z
M 1109 2559 
L 2413 2559 
Q 2828 2559 3062 2645 
Q 3297 2731 3419 2920 
Q 3541 3109 3541 3331 
Q 3541 3656 3305 3865 
Q 3069 4075 2559 4075 
L 1109 4075 
L 1109 2559 
z
" transform="scale(0.015625)"/>
      <path id="ArialMT-6b" d="M 425 0 
L 425 4581 
L 988 4581 
L 988 1969 
L 2319 3319 
L 3047 3319 
L 1778 2088 
L 3175 0 
L 2481 0 
L 1384 1697 
L 988 1316 
L 988 0 
L 425 0 
z
" transform="scale(0.015625)"/>
      <path id="ArialMT-28" d="M 1497 -1347 
Q 1031 -759 709 28 
Q 388 816 388 1659 
Q 388 2403 628 3084 
Q 909 3875 1497 4659 
L 1900 4659 
Q 1522 4009 1400 3731 
Q 1209 3300 1100 2831 
Q 966 2247 966 1656 
Q 966 153 1900 -1347 
L 1497 -1347 
z
" transform="scale(0.015625)"/>
      <path id="ArialMT-43" d="M 3763 1606 
L 4369 1453 
Q 4178 706 3683 314 
Q 3188 -78 2472 -78 
Q 1731 -78 1267 223 
Q 803 525 561 1097 
Q 319 1669 319 2325 
Q 319 3041 592 3573 
Q 866 4106 1370 4382 
Q 1875 4659 2481 4659 
Q 3169 4659 3637 4309 
Q 4106 3959 4291 3325 
L 3694 3184 
Q 3534 3684 3231 3912 
Q 2928 4141 2469 4141 
Q 1941 4141 1586 3887 
Q 1231 3634 1087 3207 
Q 944 2781 944 2328 
Q 944 1744 1114 1308 
Q 1284 872 1643 656 
Q 2003 441 2422 441 
Q 2931 441 3284 734 
Q 3638 1028 3763 1606 
z
" transform="scale(0.015625)"/>
      <path id="ArialMT-29" d="M 791 -1347 
L 388 -1347 
Q 1322 153 1322 1656 
Q 1322 2244 1188 2822 
Q 1081 3291 891 3722 
Q 769 4003 388 4659 
L 791 4659 
Q 1378 3875 1659 3084 
Q 1900 2403 1900 1659 
Q 1900 816 1576 28 
Q 1253 -759 791 -1347 
z
" transform="scale(0.015625)"/>
     </defs>
     <use xlink:href="#ArialMT-50"/>
     <use xlink:href="#ArialMT-65" transform="translate(66.699219 0)"/>
     <use xlink:href="#ArialMT-72" transform="translate(122.314453 0)"/>
     <use xlink:href="#ArialMT-73" transform="translate(155.615234 0)"/>
     <use xlink:href="#ArialMT-6f" transform="translate(205.615234 0)"/>
     <use xlink:href="#ArialMT-6e" transform="translate(261.230469 0)"/>
     <use xlink:href="#ArialMT-61" transform="translate(316.845703 0)"/>
     <use xlink:href="#ArialMT-6c" transform="translate(372.460938 0)"/>
     <use xlink:href="#ArialMT-20" transform="translate(394.677734 0)"/>
     <use xlink:href="#ArialMT-53" transform="translate(422.460938 0)"/>
     <use xlink:href="#ArialMT-74" transform="translate(489.160156 0)"/>
     <use xlink:href="#ArialMT-61" transform="translate(516.943359 0)"/>
     <use xlink:href="#ArialMT-74" transform="translate(572.558594 0)"/>
     <use xlink:href="#ArialMT-75" transform="translate(600.341797 0)"/>
     <use xlink:href="#ArialMT-73" transform="translate(655.957031 0)"/>
     <use xlink:href="#ArialMT-20" transform="translate(705.957031 0)"/>
     <use xlink:href="#ArialMT-26" transform="translate(733.740234 0)"/>
     <use xlink:href="#ArialMT-20" transform="translate(800.439453 0)"/>
     <use xlink:href="#ArialMT-53" transform="translate(828.222656 0)"/>
     <use xlink:href="#ArialMT-65" transform="translate(894.921875 0)"/>
     <use xlink:href="#ArialMT-78" transform="translate(950.537109 0)"/>
     <use xlink:href="#ArialMT-20" transform="translate(1000.537109 0)"/>
     <use xlink:href="#ArialMT-62" transform="translate(1028.320312 0)"/>
     <use xlink:href="#ArialMT-79" transform="translate(1083.935547 0)"/>
     <use xlink:href="#ArialMT-20" transform="translate(1133.935547 0)"/>
     <use xlink:href="#ArialMT-52" transform="translate(1161.71875 0)"/>
     <use xlink:href="#ArialMT-69" transform="translate(1233.935547 0)"/>
     <use xlink:href="#ArialMT-73" transform="translate(1256.152344 0)"/>
     <use xlink:href="#ArialMT-6b" transform="translate(1306.152344 0)"/>
     <use xlink:href="#ArialMT-20" transform="translate(1356.152344 0)"/>
     <use xlink:href="#ArialMT-28" transform="translate(1383.935547 0)"/>
     <use xlink:href="#ArialMT-43" transform="translate(1417.236328 0)"/>
     <use xlink:href="#ArialMT-6f" transform="translate(1489.453125 0)"/>
     <use xlink:href="#ArialMT-75" transform="translate(1545.068359 0)"/>
     <use xlink:href="#ArialMT-6e" transform="translate(1600.683594 0)"/>
     <use xlink:href="#ArialMT-74" transform="translate(1656.298828 0)"/>
     <use xlink:href="#ArialMT-29" transform="translate(1684.082031 0)"/>
    </g>
   </g>
   <g id="legend_1">
    <g id="patch_17">
     <path d="M 63.32 84.050313 
L 170.44 84.050313 
Q 172.64 84.050313 172.64 81.850313 
L 172.64 35.35625 
Q 172.64 33.15625 170.44 33.15625 
L 63.32 33.15625 
Q 61.12 33.15625 61.12 35.35625 
L 61.12 81.850313 
Q 61.12 84.050313 63.32 84.050313 
z
" style="fill: #ffffff; opacity: 0.8; stroke: #cccccc; stroke-linejoin: miter"/>
    </g>
    <g id="text_17">
     <!-- Risk Label Mapped -->
     <g style="fill: #262626" transform="translate(65.52 46.145625) scale(0.12 -0.12)">
      <defs>
       <path id="ArialMT-4c" d="M 469 0 
L 469 4581 
L 1075 4581 
L 1075 541 
L 3331 541 
L 3331 0 
L 469 0 
z
" transform="scale(0.015625)"/>
      </defs>
      <use xlink:href="#ArialMT-52"/>
      <use xlink:href="#ArialMT-69" transform="translate(72.216797 0)"/>
      <use xlink:href="#ArialMT-73" transform="translate(94.433594 0)"/>
      <use xlink:href="#ArialMT-6b" transform="translate(144.433594 0)"/>
      <use xlink:href="#ArialMT-20" transform="translate(194.433594 0)"/>
      <use xlink:href="#ArialMT-4c" transform="translate(222.216797 0)"/>
      <use xlink:href="#ArialMT-61" transform="translate(277.832031 0)"/>
      <use xlink:href="#ArialMT-62" transform="translate(333.447266 0)"/>
      <use xlink:href="#ArialMT-65" transform="translate(389.0625 0)"/>
      <use xlink:href="#ArialMT-6c" transform="translate(444.677734 0)"/>
      <use xlink:href="#ArialMT-20" transform="translate(466.894531 0)"/>
      <use xlink:href="#ArialMT-4d" transform="translate(494.677734 0)"/>
      <use xlink:href="#ArialMT-61" transform="translate(577.978516 0)"/>
      <use xlink:href="#ArialMT-70" transform="translate(633.59375 0)"/>
      <use xlink:href="#ArialMT-70" transform="translate(689.208984 0)"/>
      <use xlink:href="#ArialMT-65" transform="translate(744.824219 0)"/>
      <use xlink:href="#ArialMT-64" transform="translate(800.439453 0)"/>
     </g>
    </g>
    <g id="patch_18">
     <path d="M 88.026484 61.904219 
L 110.026484 61.904219 
L 110.026484 54.204219 
L 88.026484 54.204219 
z
" style="fill: #84d083; stroke: #ffffff; stroke-linejoin: miter"/>
    </g>
    <g id="text_18">
     <!-- Good -->
     <g style="fill: #262626" transform="translate(118.826484 61.904219) scale(0.11 -0.11)">
      <defs>
       <path id="ArialMT-47" d="M 2638 1797 
L 2638 2334 
L 4578 2338 
L 4578 638 
Q 4131 281 3656 101 
Q 3181 -78 2681 -78 
Q 2006 -78 1454 211 
Q 903 500 622 1047 
Q 341 1594 341 2269 
Q 341 2938 620 3517 
Q 900 4097 1425 4378 
Q 1950 4659 2634 4659 
Q 3131 4659 3532 4498 
Q 3934 4338 4162 4050 
Q 4391 3763 4509 3300 
L 3963 3150 
Q 3859 3500 3706 3700 
Q 3553 3900 3268 4020 
Q 2984 4141 2638 4141 
Q 2222 4141 1919 4014 
Q 1616 3888 1430 3681 
Q 1244 3475 1141 3228 
Q 966 2803 966 2306 
Q 966 1694 1177 1281 
Q 1388 869 1791 669 
Q 2194 469 2647 469 
Q 3041 469 3416 620 
Q 3791 772 3984 944 
L 3984 1797 
L 2638 1797 
z
" transform="scale(0.015625)"/>
      </defs>
      <use xlink:href="#ArialMT-47"/>
      <use xlink:href="#ArialMT-6f" transform="translate(77.783203 0)"/>
      <use xlink:href="#ArialMT-6f" transform="translate(133.398438 0)"/>
      <use xlink:href="#ArialMT-64" transform="translate(189.013672 0)"/>
     </g>
    </g>
    <g id="patch_19">
     <path d="M 88.026484 77.464063 
L 110.026484 77.464063 
L 110.026484 69.764063 
L 88.026484 69.764063 
z
" style="fill: #eb7b76; stroke: #ffffff; stroke-linejoin: miter"/>
    </g>
    <g id="text_19">
     <!-- Bad -->
     <g style="fill: #262626" transform="translate(118.826484 77.464063) scale(0.11 -0.11)">
      <defs>
       <path id="ArialMT-42" d="M 469 0 
L 469 4581 
L 2188 4581 
Q 2713 4581 3030 4442 
Q 3347 4303 3526 4014 
Q 3706 3725 3706 3409 
Q 3706 3116 3547 2856 
Q 3388 2597 3066 2438 
Q 3481 2316 3704 2022 
Q 3928 1728 3928 1328 
Q 3928 1006 3792 729 
Q 3656 453 3456 303 
Q 3256 153 2954 76 
Q 2653 0 2216 0 
L 469 0 
z
M 1075 2656 
L 2066 2656 
Q 2469 2656 2644 2709 
Q 2875 2778 2992 2937 
Q 3109 3097 3109 3338 
Q 3109 3566 3000 3739 
Q 2891 3913 2687 3977 
Q 2484 4041 1991 4041 
L 1075 4041 
L 1075 2656 
z
M 1075 541 
L 2216 541 
Q 2509 541 2628 563 
Q 2838 600 2978 687 
Q 3119 775 3209 942 
Q 3300 1109 3300 1328 
Q 3300 1584 3169 1773 
Q 3038 1963 2805 2039 
Q 2572 2116 2134 2116 
L 1075 2116 
L 1075 541 
z
" transform="scale(0.015625)"/>
      </defs>
      <use xlink:href="#ArialMT-42"/>
      <use xlink:href="#ArialMT-61" transform="translate(66.699219 0)"/>
      <use xlink:href="#ArialMT-64" transform="translate(122.314453 0)"/>
     </g>
    </g>
   </g>
  </g>
  <g id="axes_2">
   <g id="patch_20">
    <path d="M 553.168125 227.916981 
L 995.04 227.916981 
L 995.04 27.65625 
L 553.168125 27.65625 
z
" style="fill: #ffffff"/>
   </g>
   <g id="matplotlib.axis_3">
    <g id="xtick_5">
     <g id="line2d_10">
      <path d="M 608.402109 227.916981 
L 608.402109 27.65625 
" clip-path="url(#p25f91bfac1)" style="fill: none; stroke: #cccccc; stroke-linecap: round"/>
     </g>
     <g id="text_20">
      <!-- Female Divorced/Married -->
      <g style="fill: #262626" transform="translate(566.758492 330.293247) rotate(-45) scale(0.11 -0.11)">
       <use xlink:href="#ArialMT-46"/>
       <use xlink:href="#ArialMT-65" transform="translate(61.083984 0)"/>
       <use xlink:href="#ArialMT-6d" transform="translate(116.699219 0)"/>
       <use xlink:href="#ArialMT-61" transform="translate(200 0)"/>
       <use xlink:href="#ArialMT-6c" transform="translate(255.615234 0)"/>
       <use xlink:href="#ArialMT-65" transform="translate(277.832031 0)"/>
       <use xlink:href="#ArialMT-20" transform="translate(333.447266 0)"/>
       <use xlink:href="#ArialMT-44" transform="translate(361.230469 0)"/>
       <use xlink:href="#ArialMT-69" transform="translate(433.447266 0)"/>
       <use xlink:href="#ArialMT-76" transform="translate(455.664062 0)"/>
       <use xlink:href="#ArialMT-6f" transform="translate(505.664062 0)"/>
       <use xlink:href="#ArialMT-72" transform="translate(561.279297 0)"/>
       <use xlink:href="#ArialMT-63" transform="translate(594.580078 0)"/>
       <use xlink:href="#ArialMT-65" transform="translate(644.580078 0)"/>
       <use xlink:href="#ArialMT-64" transform="translate(700.195312 0)"/>
       <use xlink:href="#ArialMT-2f" transform="translate(755.810547 0)"/>
       <use xlink:href="#ArialMT-4d" transform="translate(783.59375 0)"/>
       <use xlink:href="#ArialMT-61" transform="translate(866.894531 0)"/>
       <use xlink:href="#ArialMT-72" transform="translate(922.509766 0)"/>
       <use xlink:href="#ArialMT-72" transform="translate(955.810547 0)"/>
       <use xlink:href="#ArialMT-69" transform="translate(989.111328 0)"/>
       <use xlink:href="#ArialMT-65" transform="translate(1011.328125 0)"/>
       <use xlink:href="#ArialMT-64" transform="translate(1066.943359 0)"/>
      </g>
     </g>
    </g>
    <g id="xtick_6">
     <g id="line2d_11">
      <path d="M 718.870078 227.916981 
L 718.870078 27.65625 
" clip-path="url(#p25f91bfac1)" style="fill: none; stroke: #cccccc; stroke-linecap: round"/>
     </g>
     <g id="text_21">
      <!-- Male Divorced/Separated -->
      <g style="fill: #262626" transform="translate(677.047806 330.84015) rotate(-45) scale(0.11 -0.11)">
       <use xlink:href="#ArialMT-4d"/>
       <use xlink:href="#ArialMT-61" transform="translate(83.300781 0)"/>
       <use xlink:href="#ArialMT-6c" transform="translate(138.916016 0)"/>
       <use xlink:href="#ArialMT-65" transform="translate(161.132812 0)"/>
       <use xlink:href="#ArialMT-20" transform="translate(216.748047 0)"/>
       <use xlink:href="#ArialMT-44" transform="translate(244.53125 0)"/>
       <use xlink:href="#ArialMT-69" transform="translate(316.748047 0)"/>
       <use xlink:href="#ArialMT-76" transform="translate(338.964844 0)"/>
       <use xlink:href="#ArialMT-6f" transform="translate(388.964844 0)"/>
       <use xlink:href="#ArialMT-72" transform="translate(444.580078 0)"/>
       <use xlink:href="#ArialMT-63" transform="translate(477.880859 0)"/>
       <use xlink:href="#ArialMT-65" transform="translate(527.880859 0)"/>
       <use xlink:href="#ArialMT-64" transform="translate(583.496094 0)"/>
       <use xlink:href="#ArialMT-2f" transform="translate(639.111328 0)"/>
       <use xlink:href="#ArialMT-53" transform="translate(666.894531 0)"/>
       <use xlink:href="#ArialMT-65" transform="translate(733.59375 0)"/>
       <use xlink:href="#ArialMT-70" transform="translate(789.208984 0)"/>
       <use xlink:href="#ArialMT-61" transform="translate(844.824219 0)"/>
       <use xlink:href="#ArialMT-72" transform="translate(900.439453 0)"/>
       <use xlink:href="#ArialMT-61" transform="translate(933.740234 0)"/>
       <use xlink:href="#ArialMT-74" transform="translate(989.355469 0)"/>
       <use xlink:href="#ArialMT-65" transform="translate(1017.138672 0)"/>
       <use xlink:href="#ArialMT-64" transform="translate(1072.753906 0)"/>
      </g>
     </g>
    </g>
    <g id="xtick_7">
     <g id="line2d_12">
      <path d="M 829.338047 227.916981 
L 829.338047 27.65625 
" clip-path="url(#p25f91bfac1)" style="fill: none; stroke: #cccccc; stroke-linecap: round"/>
     </g>
     <g id="text_22">
      <!-- Male Married/Widowed -->
      <g style="fill: #262626" transform="translate(791.582909 322.516287) rotate(-45) scale(0.11 -0.11)">
       <use xlink:href="#ArialMT-4d"/>
       <use xlink:href="#ArialMT-61" transform="translate(83.300781 0)"/>
       <use xlink:href="#ArialMT-6c" transform="translate(138.916016 0)"/>
       <use xlink:href="#ArialMT-65" transform="translate(161.132812 0)"/>
       <use xlink:href="#ArialMT-20" transform="translate(216.748047 0)"/>
       <use xlink:href="#ArialMT-4d" transform="translate(244.53125 0)"/>
       <use xlink:href="#ArialMT-61" transform="translate(327.832031 0)"/>
       <use xlink:href="#ArialMT-72" transform="translate(383.447266 0)"/>
       <use xlink:href="#ArialMT-72" transform="translate(416.748047 0)"/>
       <use xlink:href="#ArialMT-69" transform="translate(450.048828 0)"/>
       <use xlink:href="#ArialMT-65" transform="translate(472.265625 0)"/>
       <use xlink:href="#ArialMT-64" transform="translate(527.880859 0)"/>
       <use xlink:href="#ArialMT-2f" transform="translate(583.496094 0)"/>
       <use xlink:href="#ArialMT-57" transform="translate(611.279297 0)"/>
       <use xlink:href="#ArialMT-69" transform="translate(705.664062 0)"/>
       <use xlink:href="#ArialMT-64" transform="translate(727.880859 0)"/>
       <use xlink:href="#ArialMT-6f" transform="translate(783.496094 0)"/>
       <use xlink:href="#ArialMT-77" transform="translate(839.111328 0)"/>
       <use xlink:href="#ArialMT-65" transform="translate(911.328125 0)"/>
       <use xlink:href="#ArialMT-64" transform="translate(966.943359 0)"/>
      </g>
     </g>
    </g>
    <g id="xtick_8">
     <g id="line2d_13">
      <path d="M 939.806016 227.916981 
L 939.806016 27.65625 
" clip-path="url(#p25f91bfac1)" style="fill: none; stroke: #cccccc; stroke-linecap: round"/>
     </g>
     <g id="text_23">
      <!-- Male Single -->
      <g style="fill: #262626" transform="translate(921.498745 283.718996) rotate(-45) scale(0.11 -0.11)">
       <use xlink:href="#ArialMT-4d"/>
       <use xlink:href="#ArialMT-61" transform="translate(83.300781 0)"/>
       <use xlink:href="#ArialMT-6c" transform="translate(138.916016 0)"/>
       <use xlink:href="#ArialMT-65" transform="translate(161.132812 0)"/>
       <use xlink:href="#ArialMT-20" transform="translate(216.748047 0)"/>
       <use xlink:href="#ArialMT-53" transform="translate(244.53125 0)"/>
       <use xlink:href="#ArialMT-69" transform="translate(311.230469 0)"/>
       <use xlink:href="#ArialMT-6e" transform="translate(333.447266 0)"/>
       <use xlink:href="#ArialMT-67" transform="translate(389.0625 0)"/>
       <use xlink:href="#ArialMT-6c" transform="translate(444.677734 0)"/>
       <use xlink:href="#ArialMT-65" transform="translate(466.894531 0)"/>
      </g>
     </g>
    </g>
    <g id="text_24">
     <!-- Personal Status &amp; Sex -->
     <g style="fill: #262626" transform="translate(714.074062 344.975437) scale(0.12 -0.12)">
      <use xlink:href="#ArialMT-50"/>
      <use xlink:href="#ArialMT-65" transform="translate(66.699219 0)"/>
      <use xlink:href="#ArialMT-72" transform="translate(122.314453 0)"/>
      <use xlink:href="#ArialMT-73" transform="translate(155.615234 0)"/>
      <use xlink:href="#ArialMT-6f" transform="translate(205.615234 0)"/>
      <use xlink:href="#ArialMT-6e" transform="translate(261.230469 0)"/>
      <use xlink:href="#ArialMT-61" transform="translate(316.845703 0)"/>
      <use xlink:href="#ArialMT-6c" transform="translate(372.460938 0)"/>
      <use xlink:href="#ArialMT-20" transform="translate(394.677734 0)"/>
      <use xlink:href="#ArialMT-53" transform="translate(422.460938 0)"/>
      <use xlink:href="#ArialMT-74" transform="translate(489.160156 0)"/>
      <use xlink:href="#ArialMT-61" transform="translate(516.943359 0)"/>
      <use xlink:href="#ArialMT-74" transform="translate(572.558594 0)"/>
      <use xlink:href="#ArialMT-75" transform="translate(600.341797 0)"/>
      <use xlink:href="#ArialMT-73" transform="translate(655.957031 0)"/>
      <use xlink:href="#ArialMT-20" transform="translate(705.957031 0)"/>
      <use xlink:href="#ArialMT-26" transform="translate(733.740234 0)"/>
      <use xlink:href="#ArialMT-20" transform="translate(800.439453 0)"/>
      <use xlink:href="#ArialMT-53" transform="translate(828.222656 0)"/>
      <use xlink:href="#ArialMT-65" transform="translate(894.921875 0)"/>
      <use xlink:href="#ArialMT-78" transform="translate(950.537109 0)"/>
     </g>
    </g>
   </g>
   <g id="matplotlib.axis_4">
    <g id="ytick_10">
     <g id="line2d_14">
      <path d="M 553.168125 227.916981 
L 995.04 227.916981 
" clip-path="url(#p25f91bfac1)" style="fill: none; stroke: #cccccc; stroke-linecap: round"/>
     </g>
     <g id="text_25">
      <!-- 0 -->
      <g style="fill: #262626" transform="translate(537.551094 231.853778) scale(0.11 -0.11)">
       <use xlink:href="#ArialMT-30"/>
      </g>
     </g>
    </g>
    <g id="ytick_11">
     <g id="line2d_15">
      <path d="M 553.168125 189.77208 
L 995.04 189.77208 
" clip-path="url(#p25f91bfac1)" style="fill: none; stroke: #cccccc; stroke-linecap: round"/>
     </g>
     <g id="text_26">
      <!-- 20 -->
      <g style="fill: #262626" transform="translate(531.434062 193.708876) scale(0.11 -0.11)">
       <use xlink:href="#ArialMT-32"/>
       <use xlink:href="#ArialMT-30" transform="translate(55.615234 0)"/>
      </g>
     </g>
    </g>
    <g id="ytick_12">
     <g id="line2d_16">
      <path d="M 553.168125 151.627178 
L 995.04 151.627178 
" clip-path="url(#p25f91bfac1)" style="fill: none; stroke: #cccccc; stroke-linecap: round"/>
     </g>
     <g id="text_27">
      <!-- 40 -->
      <g style="fill: #262626" transform="translate(531.434062 155.563975) scale(0.11 -0.11)">
       <use xlink:href="#ArialMT-34"/>
       <use xlink:href="#ArialMT-30" transform="translate(55.615234 0)"/>
      </g>
     </g>
    </g>
    <g id="ytick_13">
     <g id="line2d_17">
      <path d="M 553.168125 113.482277 
L 995.04 113.482277 
" clip-path="url(#p25f91bfac1)" style="fill: none; stroke: #cccccc; stroke-linecap: round"/>
     </g>
     <g id="text_28">
      <!-- 60 -->
      <g style="fill: #262626" transform="translate(531.434062 117.419074) scale(0.11 -0.11)">
       <defs>
        <path id="ArialMT-36" d="M 3184 3459 
L 2625 3416 
Q 2550 3747 2413 3897 
Q 2184 4138 1850 4138 
Q 1581 4138 1378 3988 
Q 1113 3794 959 3422 
Q 806 3050 800 2363 
Q 1003 2672 1297 2822 
Q 1591 2972 1913 2972 
Q 2475 2972 2870 2558 
Q 3266 2144 3266 1488 
Q 3266 1056 3080 686 
Q 2894 316 2569 119 
Q 2244 -78 1831 -78 
Q 1128 -78 684 439 
Q 241 956 241 2144 
Q 241 3472 731 4075 
Q 1159 4600 1884 4600 
Q 2425 4600 2770 4297 
Q 3116 3994 3184 3459 
z
M 888 1484 
Q 888 1194 1011 928 
Q 1134 663 1356 523 
Q 1578 384 1822 384 
Q 2178 384 2434 671 
Q 2691 959 2691 1453 
Q 2691 1928 2437 2201 
Q 2184 2475 1800 2475 
Q 1419 2475 1153 2201 
Q 888 1928 888 1484 
z
" transform="scale(0.015625)"/>
       </defs>
       <use xlink:href="#ArialMT-36"/>
       <use xlink:href="#ArialMT-30" transform="translate(55.615234 0)"/>
      </g>
     </g>
    </g>
    <g id="ytick_14">
     <g id="line2d_18">
      <path d="M 553.168125 75.337376 
L 995.04 75.337376 
" clip-path="url(#p25f91bfac1)" style="fill: none; stroke: #cccccc; stroke-linecap: round"/>
     </g>
     <g id="text_29">
      <!-- 80 -->
      <g style="fill: #262626" transform="translate(531.434062 79.274173) scale(0.11 -0.11)">
       <defs>
        <path id="ArialMT-38" d="M 1131 2484 
Q 781 2613 612 2850 
Q 444 3088 444 3419 
Q 444 3919 803 4259 
Q 1163 4600 1759 4600 
Q 2359 4600 2725 4251 
Q 3091 3903 3091 3403 
Q 3091 3084 2923 2848 
Q 2756 2613 2416 2484 
Q 2838 2347 3058 2040 
Q 3278 1734 3278 1309 
Q 3278 722 2862 322 
Q 2447 -78 1769 -78 
Q 1091 -78 675 323 
Q 259 725 259 1325 
Q 259 1772 486 2073 
Q 713 2375 1131 2484 
z
M 1019 3438 
Q 1019 3113 1228 2906 
Q 1438 2700 1772 2700 
Q 2097 2700 2305 2904 
Q 2513 3109 2513 3406 
Q 2513 3716 2298 3927 
Q 2084 4138 1766 4138 
Q 1444 4138 1231 3931 
Q 1019 3725 1019 3438 
z
M 838 1322 
Q 838 1081 952 856 
Q 1066 631 1291 507 
Q 1516 384 1775 384 
Q 2178 384 2440 643 
Q 2703 903 2703 1303 
Q 2703 1709 2433 1975 
Q 2163 2241 1756 2241 
Q 1359 2241 1098 1978 
Q 838 1716 838 1322 
z
" transform="scale(0.015625)"/>
       </defs>
       <use xlink:href="#ArialMT-38"/>
       <use xlink:href="#ArialMT-30" transform="translate(55.615234 0)"/>
      </g>
     </g>
    </g>
    <g id="ytick_15">
     <g id="line2d_19">
      <path d="M 553.168125 37.192475 
L 995.04 37.192475 
" clip-path="url(#p25f91bfac1)" style="fill: none; stroke: #cccccc; stroke-linecap: round"/>
     </g>
     <g id="text_30">
      <!-- 100 -->
      <g style="fill: #262626" transform="translate(525.317031 41.129272) scale(0.11 -0.11)">
       <use xlink:href="#ArialMT-31"/>
       <use xlink:href="#ArialMT-30" transform="translate(55.615234 0)"/>
       <use xlink:href="#ArialMT-30" transform="translate(111.230469 0)"/>
      </g>
     </g>
    </g>
    <g id="text_31">
     <!-- Percentage -->
     <g style="fill: #262626" transform="translate(518.791406 158.472865) rotate(-90) scale(0.12 -0.12)">
      <use xlink:href="#ArialMT-50"/>
      <use xlink:href="#ArialMT-65" transform="translate(66.699219 0)"/>
      <use xlink:href="#ArialMT-72" transform="translate(122.314453 0)"/>
      <use xlink:href="#ArialMT-63" transform="translate(155.615234 0)"/>
      <use xlink:href="#ArialMT-65" transform="translate(205.615234 0)"/>
      <use xlink:href="#ArialMT-6e" transform="translate(261.230469 0)"/>
      <use xlink:href="#ArialMT-74" transform="translate(316.845703 0)"/>
      <use xlink:href="#ArialMT-61" transform="translate(344.628906 0)"/>
      <use xlink:href="#ArialMT-67" transform="translate(400.244141 0)"/>
      <use xlink:href="#ArialMT-65" transform="translate(455.859375 0)"/>
     </g>
    </g>
   </g>
   <g id="patch_21">
    <path d="M 580.785117 227.916981 
L 636.019102 227.916981 
L 636.019102 104.253672 
L 580.785117 104.253672 
z
" clip-path="url(#p25f91bfac1)" style="fill: #77dd76; stroke: #ffffff; stroke-linejoin: miter"/>
   </g>
   <g id="patch_22">
    <path d="M 691.253086 227.916981 
L 746.48707 227.916981 
L 746.48707 113.482277 
L 691.253086 113.482277 
z
" clip-path="url(#p25f91bfac1)" style="fill: #77dd76; stroke: #ffffff; stroke-linejoin: miter"/>
   </g>
   <g id="patch_23">
    <path d="M 801.721055 227.916981 
L 856.955039 227.916981 
L 856.955039 89.019787 
L 801.721055 89.019787 
z
" clip-path="url(#p25f91bfac1)" style="fill: #77dd76; stroke: #ffffff; stroke-linejoin: miter"/>
   </g>
   <g id="patch_24">
    <path d="M 912.189023 227.916981 
L 967.423008 227.916981 
L 967.423008 88.005938 
L 912.189023 88.005938 
z
" clip-path="url(#p25f91bfac1)" style="fill: #77dd76; stroke: #ffffff; stroke-linejoin: miter"/>
   </g>
   <g id="patch_25">
    <path d="M 580.785117 104.253672 
L 636.019102 104.253672 
L 636.019102 37.192475 
L 580.785117 37.192475 
z
" clip-path="url(#p25f91bfac1)" style="fill: #ff6962; stroke: #ffffff; stroke-linejoin: miter"/>
   </g>
   <g id="patch_26">
    <path d="M 691.253086 113.482277 
L 746.48707 113.482277 
L 746.48707 37.192475 
L 691.253086 37.192475 
z
" clip-path="url(#p25f91bfac1)" style="fill: #ff6962; stroke: #ffffff; stroke-linejoin: miter"/>
   </g>
   <g id="patch_27">
    <path d="M 801.721055 89.019787 
L 856.955039 89.019787 
L 856.955039 37.192475 
L 801.721055 37.192475 
z
" clip-path="url(#p25f91bfac1)" style="fill: #ff6962; stroke: #ffffff; stroke-linejoin: miter"/>
   </g>
   <g id="patch_28">
    <path d="M 912.189023 88.005938 
L 967.423008 88.005938 
L 967.423008 37.192475 
L 912.189023 37.192475 
z
" clip-path="url(#p25f91bfac1)" style="fill: #ff6962; stroke: #ffffff; stroke-linejoin: miter"/>
   </g>
   <g id="patch_29">
    <path d="M 553.168125 227.916981 
L 553.168125 27.65625 
" style="fill: none; stroke: #cccccc; stroke-width: 1.25; stroke-linejoin: miter; stroke-linecap: square"/>
   </g>
   <g id="patch_30">
    <path d="M 995.04 227.916981 
L 995.04 27.65625 
" style="fill: none; stroke: #cccccc; stroke-width: 1.25; stroke-linejoin: miter; stroke-linecap: square"/>
   </g>
   <g id="patch_31">
    <path d="M 553.168125 227.916981 
L 995.04 227.916981 
" style="fill: none; stroke: #cccccc; stroke-width: 1.25; stroke-linejoin: miter; stroke-linecap: square"/>
   </g>
   <g id="patch_32">
    <path d="M 553.168125 27.65625 
L 995.04 27.65625 
" style="fill: none; stroke: #cccccc; stroke-width: 1.25; stroke-linejoin: miter; stroke-linecap: square"/>
   </g>
   <g id="text_32">
    <!-- Personal Status &amp; Sex by Risk (%) -->
    <g style="fill: #262626" transform="translate(681.739687 21.65625) scale(0.12 -0.12)">
     <defs>
      <path id="ArialMT-25" d="M 372 3481 
Q 372 3972 619 4315 
Q 866 4659 1334 4659 
Q 1766 4659 2048 4351 
Q 2331 4044 2331 3447 
Q 2331 2866 2045 2552 
Q 1759 2238 1341 2238 
Q 925 2238 648 2547 
Q 372 2856 372 3481 
z
M 1350 4272 
Q 1141 4272 1002 4090 
Q 863 3909 863 3425 
Q 863 2984 1003 2804 
Q 1144 2625 1350 2625 
Q 1563 2625 1702 2806 
Q 1841 2988 1841 3469 
Q 1841 3913 1700 4092 
Q 1559 4272 1350 4272 
z
M 1353 -169 
L 3859 4659 
L 4316 4659 
L 1819 -169 
L 1353 -169 
z
M 3334 1075 
Q 3334 1569 3581 1911 
Q 3828 2253 4300 2253 
Q 4731 2253 5014 1945 
Q 5297 1638 5297 1041 
Q 5297 459 5011 145 
Q 4725 -169 4303 -169 
Q 3888 -169 3611 142 
Q 3334 453 3334 1075 
z
M 4316 1866 
Q 4103 1866 3964 1684 
Q 3825 1503 3825 1019 
Q 3825 581 3965 400 
Q 4106 219 4313 219 
Q 4528 219 4667 400 
Q 4806 581 4806 1063 
Q 4806 1506 4665 1686 
Q 4525 1866 4316 1866 
z
" transform="scale(0.015625)"/>
     </defs>
     <use xlink:href="#ArialMT-50"/>
     <use xlink:href="#ArialMT-65" transform="translate(66.699219 0)"/>
     <use xlink:href="#ArialMT-72" transform="translate(122.314453 0)"/>
     <use xlink:href="#ArialMT-73" transform="translate(155.615234 0)"/>
     <use xlink:href="#ArialMT-6f" transform="translate(205.615234 0)"/>
     <use xlink:href="#ArialMT-6e" transform="translate(261.230469 0)"/>
     <use xlink:href="#ArialMT-61" transform="translate(316.845703 0)"/>
     <use xlink:href="#ArialMT-6c" transform="translate(372.460938 0)"/>
     <use xlink:href="#ArialMT-20" transform="translate(394.677734 0)"/>
     <use xlink:href="#ArialMT-53" transform="translate(422.460938 0)"/>
     <use xlink:href="#ArialMT-74" transform="translate(489.160156 0)"/>
     <use xlink:href="#ArialMT-61" transform="translate(516.943359 0)"/>
     <use xlink:href="#ArialMT-74" transform="translate(572.558594 0)"/>
     <use xlink:href="#ArialMT-75" transform="translate(600.341797 0)"/>
     <use xlink:href="#ArialMT-73" transform="translate(655.957031 0)"/>
     <use xlink:href="#ArialMT-20" transform="translate(705.957031 0)"/>
     <use xlink:href="#ArialMT-26" transform="translate(733.740234 0)"/>
     <use xlink:href="#ArialMT-20" transform="translate(800.439453 0)"/>
     <use xlink:href="#ArialMT-53" transform="translate(828.222656 0)"/>
     <use xlink:href="#ArialMT-65" transform="translate(894.921875 0)"/>
     <use xlink:href="#ArialMT-78" transform="translate(950.537109 0)"/>
     <use xlink:href="#ArialMT-20" transform="translate(1000.537109 0)"/>
     <use xlink:href="#ArialMT-62" transform="translate(1028.320312 0)"/>
     <use xlink:href="#ArialMT-79" transform="translate(1083.935547 0)"/>
     <use xlink:href="#ArialMT-20" transform="translate(1133.935547 0)"/>
     <use xlink:href="#ArialMT-52" transform="translate(1161.71875 0)"/>
     <use xlink:href="#ArialMT-69" transform="translate(1233.935547 0)"/>
     <use xlink:href="#ArialMT-73" transform="translate(1256.152344 0)"/>
     <use xlink:href="#ArialMT-6b" transform="translate(1306.152344 0)"/>
     <use xlink:href="#ArialMT-20" transform="translate(1356.152344 0)"/>
     <use xlink:href="#ArialMT-28" transform="translate(1383.935547 0)"/>
     <use xlink:href="#ArialMT-25" transform="translate(1417.236328 0)"/>
     <use xlink:href="#ArialMT-29" transform="translate(1506.152344 0)"/>
    </g>
   </g>
   <g id="legend_2">
    <g id="patch_33">
     <path d="M 925.232969 84.050313 
L 987.34 84.050313 
Q 989.54 84.050313 989.54 81.850313 
L 989.54 35.35625 
Q 989.54 33.15625 987.34 33.15625 
L 925.232969 33.15625 
Q 923.032969 33.15625 923.032969 35.35625 
L 923.032969 81.850313 
Q 923.032969 84.050313 925.232969 84.050313 
z
" style="fill: #ffffff; opacity: 0.8; stroke: #cccccc; stroke-linejoin: miter"/>
    </g>
    <g id="text_33">
     <!-- Risk Label -->
     <g style="fill: #262626" transform="translate(928.273984 46.145625) scale(0.12 -0.12)">
      <use xlink:href="#ArialMT-52"/>
      <use xlink:href="#ArialMT-69" transform="translate(72.216797 0)"/>
      <use xlink:href="#ArialMT-73" transform="translate(94.433594 0)"/>
      <use xlink:href="#ArialMT-6b" transform="translate(144.433594 0)"/>
      <use xlink:href="#ArialMT-20" transform="translate(194.433594 0)"/>
      <use xlink:href="#ArialMT-4c" transform="translate(222.216797 0)"/>
      <use xlink:href="#ArialMT-61" transform="translate(277.832031 0)"/>
      <use xlink:href="#ArialMT-62" transform="translate(333.447266 0)"/>
      <use xlink:href="#ArialMT-65" transform="translate(389.0625 0)"/>
      <use xlink:href="#ArialMT-6c" transform="translate(444.677734 0)"/>
     </g>
    </g>
    <g id="patch_34">
     <path d="M 927.432969 61.904219 
L 949.432969 61.904219 
L 949.432969 54.204219 
L 927.432969 54.204219 
z
" style="fill: #77dd76; stroke: #ffffff; stroke-linejoin: miter"/>
    </g>
    <g id="text_34">
     <!-- Good -->
     <g style="fill: #262626" transform="translate(958.232969 61.904219) scale(0.11 -0.11)">
      <use xlink:href="#ArialMT-47"/>
      <use xlink:href="#ArialMT-6f" transform="translate(77.783203 0)"/>
      <use xlink:href="#ArialMT-6f" transform="translate(133.398438 0)"/>
      <use xlink:href="#ArialMT-64" transform="translate(189.013672 0)"/>
     </g>
    </g>
    <g id="patch_35">
     <path d="M 927.432969 77.464063 
L 949.432969 77.464063 
L 949.432969 69.764063 
L 927.432969 69.764063 
z
" style="fill: #ff6962; stroke: #ffffff; stroke-linejoin: miter"/>
    </g>
    <g id="text_35">
     <!-- Bad -->
     <g style="fill: #262626" transform="translate(958.232969 77.464063) scale(0.11 -0.11)">
      <use xlink:href="#ArialMT-42"/>
      <use xlink:href="#ArialMT-61" transform="translate(66.699219 0)"/>
      <use xlink:href="#ArialMT-64" transform="translate(122.314453 0)"/>
     </g>
    </g>
   </g>
  </g>
 </g>
 <defs>
  <clipPath id="p71a82e491c">
   <rect x="55.62" y="27.65625" width="441.871875" height="200.260731"/>
  </clipPath>
  <clipPath id="p25f91bfac1">
   <rect x="553.168125" y="27.65625" width="441.871875" height="200.260731"/>
  </clipPath>
 </defs>
</svg>
